<svg width="14" height="13" viewBox="0 0 14 13" fill="none" xmlns="http://www.w3.org/2000/svg">
<path d="M12.25 5.4375H8.3125V1.5C8.3125 1.03516 7.90234 0.625 7.4375 0.625H6.5625C6.07031 0.625 5.6875 1.03516 5.6875 1.5V5.4375H1.75C1.25781 5.4375 0.875 5.84766 0.875 6.3125V7.1875C0.875 7.67969 1.25781 8.0625 1.75 8.0625H5.6875V12C5.6875 12.4922 6.07031 12.875 6.5625 12.875H7.4375C7.90234 12.875 8.3125 12.4922 8.3125 12V8.0625H12.25C12.7148 8.0625 13.125 7.67969 13.125 7.1875V6.3125C13.125 5.84766 12.7148 5.4375 12.25 5.4375Z" fill="#EBEBF2"/>
</svg>
