<svg width="22" height="27" viewBox="0 0 22 27" fill="none" xmlns="http://www.w3.org/2000/svg">
<path d="M21.4739 22.1047C21.4739 17.7018 20.3858 12.6125 15.9996 12.6125C14.6436 13.935 12.8021 14.7553 10.7596 14.7553C8.71723 14.7553 6.87571 13.935 5.51969 12.6125C1.13353 12.6125 0.0453568 17.7018 0.0453568 22.1047C0.0453568 24.5489 1.6525 26.5411 3.61121 26.5411H17.9081C19.8668 26.5411 21.4739 24.5489 21.4739 22.1047ZM17.1882 7.25534C17.1882 3.70623 14.3088 0.826764 10.7596 0.826764C7.21054 0.826764 4.33107 3.70623 4.33107 7.25534C4.33107 10.8044 7.21054 13.6839 10.7596 13.6839C14.3088 13.6839 17.1882 10.8044 17.1882 7.25534Z" fill="#EBEBF2"/>
</svg>
