<svg width="13" height="13" viewBox="0 0 13 13" fill="none" xmlns="http://www.w3.org/2000/svg">
<path d="M10.8062 6.79672C10.8062 6.99985 10.6812 7.17953 10.5015 7.25766C10.439 7.2811 10.3687 7.29672 10.3062 7.29672C10.1733 7.29672 10.0483 7.24985 9.95459 7.14828L8.82959 6.02328L4.65771 10.1952C4.4624 10.3905 4.1499 10.3905 3.95459 10.1952L3.15772 9.39828C2.9624 9.20297 2.9624 8.89047 3.15772 8.69516L7.32959 4.52328L6.20459 3.39828C6.05615 3.25766 6.01709 3.03891 6.09521 2.85141C6.17334 2.67172 6.35303 2.54672 6.55615 2.54672H10.3062C10.5796 2.54672 10.8062 2.77328 10.8062 3.04672V6.79672ZM12.8062 2.79672C12.8062 1.55453 11.7983 0.546722 10.5562 0.546722H3.05615C1.81396 0.546722 0.806152 1.55453 0.806152 2.79672V10.2967C0.806152 11.5389 1.81396 12.5467 3.05615 12.5467H10.5562C11.7983 12.5467 12.8062 11.5389 12.8062 10.2967V2.79672Z" fill="#CCCCCC"/>
</svg>
