<svg width="21" height="24" viewBox="0 0 21 24" fill="none" xmlns="http://www.w3.org/2000/svg">
<path d="M20.464 3.80487C20.464 5.8209 16.0454 7.45545 10.5956 7.45545C5.14528 7.45545 0.727203 5.8209 0.727203 3.80487C0.727203 1.78884 5.14528 0.154297 10.5956 0.154297C16.0454 0.154297 20.464 1.78884 20.464 3.80487ZM10.5956 9.28074C5.14528 9.28074 0.727203 7.64619 0.727203 5.63016V9.28074C0.727203 11.2968 5.14528 12.9313 10.5956 12.9313C16.0454 12.9313 20.464 11.2968 20.464 9.28074V5.63016C20.464 7.64619 16.0454 9.28074 10.5956 9.28074ZM10.5956 14.7566C5.14528 14.7566 0.727203 13.1221 0.727203 11.106V14.7566C0.727203 16.7726 5.14528 18.4072 10.5956 18.4072C16.0454 18.4072 20.464 16.7726 20.464 14.7566V11.106C20.464 13.1221 16.0454 14.7566 10.5956 14.7566ZM10.5956 20.2325C5.14528 20.2325 0.727203 18.5979 0.727203 16.5819V20.2325C0.727203 22.2485 5.14528 23.883 10.5956 23.883C16.0454 23.883 20.464 22.2485 20.464 20.2325V16.5819C20.464 18.5979 16.0454 20.2325 10.5956 20.2325Z" fill="#EBEBF2"/>
</svg>
