<svg xmlns="http://www.w3.org/2000/svg" height="24" viewBox="0 0 24 24" width="24"><path d="M3 2.9999998c-1.1 0-2 .9-2 2V19c0 1.1.9 2 2 2h18c1.1 0 2-.9 2-2V4.9999998c0-1.1-.9-2-2-2zm0 4.7070313h18V19.009765H3zm.859375 1.3671874v3.7968755h9.748047V9.0742185zm10.681641 0v3.7968755h5.597656V9.0742185zm-9.945313.828125h8.275391v2.1777345H4.595703zm10.582031 0h4.326172v2.1777345h-4.326172zM3.859375 13.996094v3.796874h5.597656v-3.796874zm6.533203 0v3.796874h9.746094v-3.796874zm-5.898437.828124h4.328125v2.177735H4.494141zm6.634765 0h8.273438v2.177735h-8.273438z"/></svg>