<svg width="31" height="25" viewBox="0 0 31 25" fill="none" xmlns="http://www.w3.org/2000/svg">
<path d="M7.13738 15.963C7.13738 17.1516 6.18314 18.1059 4.99452 18.1059C3.80591 18.1059 2.85167 17.1516 2.85167 15.963C2.85167 14.7744 3.80591 13.8202 4.99452 13.8202C6.18314 13.8202 7.13738 14.7744 7.13738 15.963ZM10.3517 8.46303C10.3517 9.65165 9.39743 10.6059 8.20881 10.6059C7.02019 10.6059 6.06595 9.65165 6.06595 8.46303C6.06595 7.27441 7.02019 6.32017 8.20881 6.32017C9.39743 6.32017 10.3517 7.27441 10.3517 8.46303ZM17.5168 16.5155C18.605 17.2688 19.1742 18.6416 18.8226 19.9976C18.3706 21.7052 16.6128 22.7432 14.8885 22.2912C13.1809 21.8391 12.143 20.0813 12.595 18.357C12.9633 17.001 14.1184 16.0802 15.441 15.9798L17.1318 9.58468C17.2825 9.01549 17.8684 8.66392 18.4376 8.81459C19.0068 8.96526 19.3416 9.5512 19.2077 10.1204L17.5168 16.5155ZM28.566 15.963C28.566 17.1516 27.6117 18.1059 26.4231 18.1059C25.2345 18.1059 24.2802 17.1516 24.2802 15.963C24.2802 14.7744 25.2345 13.8202 26.4231 13.8202C27.6117 13.8202 28.566 14.7744 28.566 15.963ZM17.8517 5.24874C17.8517 6.43736 16.8974 7.3916 15.7088 7.3916C14.5202 7.3916 13.566 6.43736 13.566 5.24874C13.566 4.06013 14.5202 3.10589 15.7088 3.10589C16.8974 3.10589 17.8517 4.06013 17.8517 5.24874ZM25.3517 8.46303C25.3517 9.65165 24.3974 10.6059 23.2088 10.6059C22.0202 10.6059 21.066 9.65165 21.066 8.46303C21.066 7.27441 22.0202 6.32017 23.2088 6.32017C24.3974 6.32017 25.3517 7.27441 25.3517 8.46303ZM30.7088 15.963C30.7088 7.69294 23.9789 0.96303 15.7088 0.96303C7.43872 0.96303 0.708809 7.69294 0.708809 15.963C0.708809 18.8425 1.52912 21.6383 3.0693 24.049C3.27019 24.3503 3.60501 24.5345 3.97332 24.5345H27.4443C27.8126 24.5345 28.1474 24.3503 28.3483 24.049C29.8885 21.6215 30.7088 18.8425 30.7088 15.963Z" fill="#EBEBF2"/>
</svg>
