<svg width="38" height="29" id="vssicon-dashboard" viewBox="12 0 36 35">
    <path d="M20.7206376,2.34801454 C23.4033837,0.782997763 26.3298378,0 29.5,0 C32.6711409,0 35.5975951,0.782997763 38.2793624,2.34801454 C40.9611298,3.91498881 43.0850112,6.03887025 44.6510067,8.72063758 C46.2170022,11.4024049 47,14.3278803 47,17.5 C47,20.6711409 46.2170022,23.5975951 44.6510067,26.2783837 C43.0850112,28.9611298 40.9611298,31.0850112 38.2793624,32.650028 C35.5975951,34.2170022 32.6711409,35 29.5,35 C26.3298378,35 23.4033837,34.2170022 20.7206376,32.650028 C18.0388702,31.0850112 15.9149888,28.9611298 14.349972,26.2783837 C12.7829978,23.5975951 12,20.6711409 12,17.5 C12,14.3278803 12.7829978,11.4024049 14.349972,8.72063758 C15.9149888,6.03887025 18.0388702,3.91498881 20.7206376,2.34801454 C20.7206376,2.34801454 18.0388702,3.91498881 20.7206376,2.34801454 L20.7206376,2.34801454 L20.7206376,2.34801454 Z M38.0885067,8.91051454 C35.710151,6.53313758 32.8473154,5.34395973 29.5,5.34395973 C26.1526846,5.34395973 23.289849,6.53313758 20.912472,8.91051454 C18.5331376,11.289849 17.3439597,14.1526846 17.3439597,17.5 C17.3439597,20.8668904 18.5331376,23.7346197 20.912472,26.1031879 C23.289849,28.4717562 26.1526846,29.6560403 29.5,29.6560403 C32.8473154,29.6560403 35.710151,28.4717562 38.0885067,26.1031879 C40.4668624,23.7346197 41.6560403,20.8668904 41.6560403,17.5 C41.6560403,14.1526846 40.4668624,11.289849 38.0885067,8.91051454 C38.0885067,8.91051454 40.4668624,11.289849 38.0885067,8.91051454 L38.0885067,8.91051454 L38.0885067,8.91051454 Z M21.0005593,14.6371644 C21.3029922,14.332774 21.6798098,14.182047 22.1300336,14.182047 C22.581236,14.182047 22.9619687,14.3386465 23.2751678,14.6518456 C23.5883669,14.9650447 23.7449664,15.3369687 23.7449664,15.7666387 C23.7449664,16.2178412 23.5883669,16.5995526 23.2751678,16.9117729 C22.9619687,17.224972 22.581236,17.3825503 22.1300336,17.3825503 C21.6993848,17.3825503 21.3274609,17.224972 21.0142617,16.9117729 C20.7010626,16.5995526 20.5454418,16.2178412 20.5454418,15.7666387 C20.5454418,15.3173937 20.6961689,14.9395973 21.0005593,14.6371644 C21.0005593,14.6371644 20.6961689,14.9395973 21.0005593,14.6371644 L21.0005593,14.6371644 L21.0005593,14.6371644 Z M25.3608781,8.42603468 C25.7905481,8.42603468 26.162472,8.58361298 26.4756711,8.89681208 C26.7888702,9.21001119 26.9454698,9.5917226 26.9454698,10.0419463 C26.9454698,10.49217 26.7888702,10.8738814 26.4756711,11.1861018 C26.162472,11.5002796 25.7905481,11.6568792 25.3608781,11.6568792 C24.9096756,11.6568792 24.5279642,11.4953859 24.2157438,11.1723993 C23.901566,10.8494128 23.7449664,10.4725951 23.7449664,10.0419463 C23.7449664,9.61129754 23.901566,9.23350112 24.2157438,8.91051454 C24.5279642,8.58752796 24.9096756,8.42603468 25.3608781,8.42603468 C25.3608781,8.42603468 24.9096756,8.42603468 25.3608781,8.42603468 L25.3608781,8.42603468 L25.3608781,8.42603468 Z M32.7895694,10.8934564 L32.817953,10.8631152 C32.6417785,10.5900447 32.5536913,10.3159955 32.5536913,10.0419463 C32.5536913,9.61129754 32.7102908,9.23350112 33.0244687,8.91051454 C33.336689,8.58752796 33.7184004,8.42603468 34.1696029,8.42603468 C34.5992729,8.42603468 34.9711969,8.58361298 35.284396,8.89681208 C35.5975951,9.21001119 35.7541946,9.5917226 35.7541946,10.0419463 C35.7541946,10.49217 35.5975951,10.8738814 35.284396,11.1861018 C34.9711969,11.5002796 34.5992729,11.6568792 34.1696029,11.6568792 C33.8935962,11.6568792 33.6107383,11.5580257 33.3171141,11.3622763 L31.7021812,15.6208054 C32.0349553,16.0514541 32.202321,16.5506152 32.202321,17.1182886 C32.202321,17.8229866 31.9517617,18.4249161 31.4526007,18.9240772 C30.9544183,19.4232383 30.3515101,19.67184 29.6468121,19.67184 C28.9430928,19.67184 28.3411633,19.4232383 27.8420022,18.9240772 C27.3418624,18.4249161 27.09228219,17.8229866 27.0922819,17.1182886 C27.0922819,16.4909116 27.2929251,15.9388982 27.6942114,15.4593121 C28.0964765,14.9787472 28.5995526,14.6909955 29.2063758,14.5931208 L32.7895694,10.8934564 L32.7895694,10.8934564 L32.7895694,10.8934564 L32.7895694,10.8934564 Z M35.9607103,14.6518456 C36.2729306,14.3386465 36.6546421,14.182047 37.1058445,14.182047 C37.5550895,14.182047 37.9309284,14.332774 38.2353188,14.6371644 C38.5397092,14.9395973 38.6904362,15.3173937 38.6904362,15.7666387 C38.6904362,16.2178412 38.5338367,16.5995526 38.2206376,16.9117729 C37.9074385,17.224972 37.5355145,17.3825503 37.1058445,17.3825503 C36.6546421,17.3825503 36.2729306,17.224972 35.9607103,16.9117729 C35.6465324,16.5995526 35.4899329,16.2178412 35.4899329,15.7666387 C35.4899329,15.3369687 35.6465324,14.9650447 35.9607103,14.6518456 L35.9607103,14.6518456 Z"></path>
</svg>