<svg width="26" height="21" viewBox="0 0 26 21" fill="none" xmlns="http://www.w3.org/2000/svg">
<path d="M23.625 0.5H2.375C1.32031 0.5 0.5 1.35938 0.5 2.375V14.875C0.5 15.9297 1.32031 16.75 2.375 16.75H11.75V18H4.875C4.52344 18 4.25 18.3125 4.25 18.625V19.875C4.25 20.2266 4.52344 20.5 4.875 20.5H21.125C21.4375 20.5 21.75 20.2266 21.75 19.875V18.625C21.75 18.3125 21.4375 18 21.125 18H14.25V16.75H23.625C24.6406 16.75 25.5 15.9297 25.5 14.875V2.375C25.5 1.35938 24.6406 0.5 23.625 0.5ZM23 14.25H3V3H23V14.25Z" fill="#EBEBF2"/>
</svg>
