<svg width="16" height="15" viewBox="0 0 16 15" fill="none" xmlns="http://www.w3.org/2000/svg">
<path d="M14.5898 4.66016C15.1094 4.14062 15.1094 3.29297 14.5898 2.80078L12.9492 1.16016C12.457 0.640625 11.6094 0.640625 11.0898 1.16016L9.83203 2.41797C9.72266 2.52734 9.72266 2.74609 9.83203 2.88281L12.8672 5.91797C13.0039 6.02734 13.2227 6.02734 13.332 5.91797L14.5898 4.66016ZM8.76562 3.48438L1.57422 10.6758L1 13.9844C0.917969 14.4492 1.30078 14.832 1.76562 14.75L5.07422 14.1758L12.2656 6.98438C12.4023 6.875 12.4023 6.65625 12.2656 6.51953L9.23047 3.48438C9.09375 3.375 8.875 3.375 8.76562 3.48438ZM4.39062 10.0469C4.22656 9.91016 4.22656 9.66406 4.39062 9.52734L8.60156 5.31641C8.73828 5.15234 8.98438 5.15234 9.12109 5.31641C9.28516 5.45312 9.28516 5.69922 9.12109 5.83594L4.91016 10.0469C4.77344 10.2109 4.52734 10.2109 4.39062 10.0469ZM3.40625 12.3438H4.71875V13.3555L2.94141 13.6562L2.09375 12.8086L2.39453 11.0312H3.40625V12.3438Z" fill="#EBEBF2"/>
</svg>
