<svg width="20" height="16" viewBox="0 0 20 16" fill="none" xmlns="http://www.w3.org/2000/svg">
<path d="M20 10.0714C20 9.87054 19.8326 9.71429 19.6429 9.71429H4.28571V7.57143C4.28571 7.37054 4.1183 7.21429 3.92857 7.21429C3.83929 7.21429 3.73884 7.24777 3.67188 7.31473L0.100446 10.8862C0.0334821 10.9531 0 11.0424 0 11.1429C0 11.2321 0.0334821 11.3214 0.100446 11.3884L3.66071 14.9598C3.73884 15.0268 3.82813 15.0714 3.92857 15.0714C4.12946 15.0714 4.28571 14.904 4.28571 14.7143V12.5714H19.6429C19.8326 12.5714 20 12.404 20 12.2143V10.0714ZM20 4C20 3.91071 19.9665 3.81027 19.8996 3.7433L16.3393 0.183035C16.2612 0.116071 16.1719 0.0714281 16.0714 0.0714281C15.8705 0.0714281 15.7143 0.227678 15.7143 0.428571V2.57143H0.357143C0.167411 2.57143 0 2.73884 0 2.92857V5.07143C0 5.26116 0.167411 5.42857 0.357143 5.42857H15.7143V7.57143C15.7143 7.76116 15.8817 7.92857 16.0714 7.92857C16.1607 7.92857 16.2612 7.89509 16.3281 7.82812L19.8996 4.2567C19.9665 4.18973 20 4.08929 20 4Z" fill="#EBEBF2"/>
</svg>
