<svg width="16" height="15" viewBox="0 0 16 15" fill="none" xmlns="http://www.w3.org/2000/svg">
<path d="M15.0174 0.534598C14.917 0.303571 14.686 0.142857 14.4248 0.142857H1.56766C1.3065 0.142857 1.07547 0.303571 0.975028 0.534598C0.874581 0.775669 0.924805 1.05692 1.11565 1.23772L6.06766 6.18973V11.0714C6.06766 11.2422 6.13797 11.4029 6.25851 11.5234L8.82994 14.0949C8.95047 14.2254 9.11119 14.2857 9.28195 14.2857C9.36231 14.2857 9.45271 14.2656 9.53306 14.2355C9.76409 14.135 9.9248 13.904 9.9248 13.6429V6.18973L14.8768 1.23772C15.0677 1.05692 15.1179 0.775669 15.0174 0.534598Z" fill="black"/>
</svg>
