<svg width="38" height="29" viewBox="0 0 30 25">
    <path d="M8.82352941,22.7678571 L14.1176471,20.0892857 L14.1176471,15.7087054 L8.82352941,17.9966518 L8.82352941,22.7678571 Z M7.94117647,16.4341518 L13.5110294,14.0206473 L7.94117647,11.6071429 L2.37132353,14.0206473 L7.94117647,16.4341518 Z M22.9411765,22.7678571 L28.2352941,20.0892857 L28.2352941,15.7087054 L22.9411765,17.9966518 L22.9411765,22.7678571 Z M22.0588235,16.4341518 L27.6286765,14.0206473 L22.0588235,11.6071429 L16.4889706,14.0206473 L22.0588235,16.4341518 Z M15.8823529,12.3465402 L21.1764706,10.0446429 L21.1764706,6.33370536 L15.8823529,8.62165179 L15.8823529,12.3465402 Z M15,7.05915179 L21.0799632,4.42243304 L15,1.78571429 L8.92003676,4.42243304 L15,7.05915179 Z M30,14.2857143 L30,20.0892857 C30,20.4241071 29.9126838,20.7356771 29.7380515,21.0239955 C29.5634191,21.312314 29.3244485,21.530878 29.0211397,21.6796875 L22.8446691,24.8046875 C22.6148897,24.9348958 22.3529412,25 22.0588235,25 C21.7647059,25 21.5027574,24.9348958 21.2729779,24.8046875 L15.0965074,21.6796875 C15.0505515,21.6610863 15.0183824,21.6424851 15,21.6238839 C14.9816176,21.6424851 14.9494485,21.6610863 14.9034926,21.6796875 L8.72702206,24.8046875 C8.49724265,24.9348958 8.23529412,25 7.94117647,25 C7.64705882,25 7.38511029,24.9348958 7.15533088,24.8046875 L0.978860294,21.6796875 C0.675551471,21.530878 0.436580882,21.312314 0.261948529,21.0239955 C0.0873161765,20.7356771 0,20.4241071 0,20.0892857 L0,14.2857143 C0,13.9322917 0.0988051471,13.6067708 0.296415441,13.3091518 C0.494025735,13.0115327 0.753676471,12.7883185 1.07536765,12.6395089 L7.05882353,10.0446429 L7.05882353,4.46428571 C7.05882353,4.1108631 7.15762868,3.78534226 7.35523897,3.48772321 C7.55284926,3.19010417 7.8125,2.96688988 8.13419118,2.81808036 L14.3106618,0.139508929 C14.5220588,0.0465029762 14.7518382,0 15,0 C15.2481618,0 15.4779412,0.0465029762 15.6893382,0.139508929 L21.8658088,2.81808036 C22.1875,2.96688988 22.4471507,3.19010417 22.644761,3.48772321 C22.8423713,3.78534226 22.9411765,4.1108631 22.9411765,4.46428571 L22.9411765,10.0446429 L28.9246324,12.6395089 C29.2555147,12.7883185 29.5174632,13.0115327 29.7104779,13.3091518 C29.9034926,13.6067708 30,13.9322917 30,14.2857143 Z"></path>
</svg>