<svg width="26" height="21" viewBox="0 0 26 21" fill="none" xmlns="http://www.w3.org/2000/svg">
<path d="M24.875 14.25H24.25V10.0312C24.25 9.5625 24.0156 9.05469 23.6641 8.70312L19.7969 4.83594C19.4453 4.48438 18.9375 4.25 18.4688 4.25H16.75V2.375C16.75 1.35938 15.8906 0.5 14.875 0.5H2.375C1.32031 0.5 0.5 1.35938 0.5 2.375V14.875C0.5 15.9297 1.32031 16.75 2.375 16.75H3C3 18.8203 4.67969 20.5 6.75 20.5C8.82031 20.5 10.5 18.8203 10.5 16.75H15.5C15.5 18.8203 17.1797 20.5 19.25 20.5C21.3203 20.5 23 18.8203 23 16.75H24.875C25.1875 16.75 25.5 16.4766 25.5 16.125V14.875C25.5 14.5625 25.1875 14.25 24.875 14.25ZM6.75 18.625C5.69531 18.625 4.875 17.8047 4.875 16.75C4.875 15.7344 5.69531 14.875 6.75 14.875C7.76562 14.875 8.625 15.7344 8.625 16.75C8.625 17.8047 7.76562 18.625 6.75 18.625ZM19.25 18.625C18.1953 18.625 17.375 17.8047 17.375 16.75C17.375 15.7344 18.1953 14.875 19.25 14.875C20.2656 14.875 21.125 15.7344 21.125 16.75C21.125 17.8047 20.2656 18.625 19.25 18.625ZM22.375 10.5H16.75V6.125H18.4688L22.375 10.0312V10.5Z" fill="#EBEBF2"/>
</svg>
