<svg width="26" height="21" viewBox="0 0 26 21" fill="none" xmlns="http://www.w3.org/2000/svg">
<path d="M20.5391 7.96094L20.2266 8.50781C20.0964 8.74219 19.901 8.82031 19.6406 8.74219C19.1719 8.5599 18.7552 8.3125 18.3906 8C18.1823 7.81771 18.1432 7.60938 18.2734 7.375L18.5859 6.82812C18.3255 6.51562 18.1172 6.16406 17.9609 5.77344H17.3359C17.0495 5.77344 16.8932 5.63021 16.8672 5.34375C16.763 4.875 16.763 4.39323 16.8672 3.89844C16.8932 3.63802 17.0495 3.50781 17.3359 3.50781H17.9609C18.1172 3.11719 18.3255 2.76562 18.5859 2.45312L18.2734 1.86719C18.1432 1.63281 18.1823 1.4375 18.3906 1.28125C18.7552 0.96875 19.1719 0.721354 19.6406 0.539062C19.901 0.434896 20.0964 0.5 20.2266 0.734375L20.5391 1.32031C20.9557 1.24219 21.3724 1.24219 21.7891 1.32031L22.1016 0.734375C22.2318 0.5 22.4271 0.434896 22.6875 0.539062C23.1562 0.695312 23.5729 0.942708 23.9375 1.28125C24.1458 1.4375 24.1849 1.63281 24.0547 1.86719L23.7422 2.45312C24.0026 2.76562 24.2109 3.11719 24.3672 3.50781H24.9922C25.2786 3.50781 25.4349 3.63802 25.4609 3.89844C25.5651 4.39323 25.5651 4.875 25.4609 5.34375C25.4349 5.63021 25.2786 5.77344 24.9922 5.77344H24.3672C24.2109 6.16406 24.0026 6.51562 23.7422 6.82812L24.0547 7.375C24.1849 7.63542 24.1458 7.84375 23.9375 8C23.5729 8.3125 23.1562 8.5599 22.6875 8.74219C22.4271 8.82031 22.2318 8.74219 22.1016 8.50781L21.7891 7.96094C21.3724 8.03906 20.9557 8.03906 20.5391 7.96094ZM20.1484 5.65625C20.6172 6.02083 21.099 6.125 21.5938 5.96875C22.0885 5.8125 22.388 5.51302 22.4922 5.07031C22.6224 4.60156 22.5182 4.10677 22.1797 3.58594C21.7109 3.22135 21.2292 3.11719 20.7344 3.27344C20.2396 3.42969 19.9271 3.74219 19.7969 4.21094C19.6927 4.65365 19.8099 5.13542 20.1484 5.65625ZM15.6172 11.6719L16.9453 12.3359C17.388 12.5964 17.5182 12.974 17.3359 13.4688C17.1016 14.1458 16.5547 15.0052 15.6953 16.0469C15.3568 16.4375 14.9661 16.5026 14.5234 16.2422L13.3516 15.5781C12.7266 16.125 12.0234 16.5417 11.2422 16.8281V18.1562C11.2422 18.3646 11.1641 18.5599 11.0078 18.7422C10.8516 18.9245 10.6693 19.0286 10.4609 19.0547C9.47135 19.237 8.48177 19.237 7.49219 19.0547C7.25781 19.0286 7.0625 18.9245 6.90625 18.7422C6.77604 18.5599 6.71094 18.3646 6.71094 18.1562V16.8281C5.90365 16.5417 5.1875 16.125 4.5625 15.5781L3.42969 16.2422C2.98698 16.5026 2.59635 16.4375 2.25781 16.0469C1.42448 15.0312 0.877604 14.1719 0.617188 13.4688C0.434896 12.974 0.565104 12.5964 1.00781 12.3359L2.29688 11.6719C2.14062 10.8385 2.14062 10.0182 2.29688 9.21094L1.00781 8.54688C0.539062 8.28646 0.408854 7.90885 0.617188 7.41406C0.877604 6.71094 1.42448 5.85156 2.25781 4.83594C2.57031 4.44531 2.96094 4.38021 3.42969 4.64062L4.5625 5.26562C5.21354 4.71875 5.92969 4.3151 6.71094 4.05469V2.72656C6.71094 2.49219 6.77604 2.29688 6.90625 2.14062C7.0625 1.95833 7.25781 1.85417 7.49219 1.82812C8.48177 1.64583 9.47135 1.64583 10.4609 1.82812C10.5651 1.82812 10.6562 1.86719 10.7344 1.94531C10.8385 1.9974 10.9297 2.0625 11.0078 2.14062C11.0859 2.21875 11.138 2.3099 11.1641 2.41406C11.2161 2.51823 11.2422 2.6224 11.2422 2.72656V4.05469C12.0234 4.34115 12.7266 4.74479 13.3516 5.26562L14.5234 4.64062C14.9661 4.35417 15.3568 4.41927 15.6953 4.83594C16.5286 5.82552 17.0755 6.6849 17.3359 7.41406C17.5182 7.90885 17.388 8.28646 16.9453 8.54688L15.6172 9.21094C15.7734 10.0182 15.7734 10.8385 15.6172 11.6719ZM11.0469 12.4922C11.4896 11.9193 11.737 11.3203 11.7891 10.6953C11.8411 10.0703 11.724 9.53646 11.4375 9.09375C11.151 8.625 10.7734 8.2474 10.3047 7.96094C9.86198 7.67448 9.32812 7.57031 8.70312 7.64844C8.07812 7.70052 7.47917 7.94792 6.90625 8.39062C6.46354 8.96354 6.21615 9.5625 6.16406 10.1875C6.11198 10.8125 6.22917 11.3594 6.51562 11.8281C6.80208 12.2708 7.16667 12.6354 7.60938 12.9219C8.07812 13.2083 8.625 13.3255 9.25 13.2734C9.875 13.1953 10.474 12.9349 11.0469 12.4922ZM20.5391 19.6406L20.2266 20.1875C20.0964 20.4219 19.901 20.5 19.6406 20.4219C19.1719 20.2396 18.7552 19.9922 18.3906 19.6797C18.1823 19.4974 18.1432 19.2891 18.2734 19.0547L18.5859 18.5078C18.3255 18.1953 18.1172 17.8438 17.9609 17.4531H17.3359C17.0495 17.4531 16.8932 17.3099 16.8672 17.0234C16.763 16.5547 16.763 16.0729 16.8672 15.5781C16.8932 15.3177 17.0495 15.1875 17.3359 15.1875H17.9609C18.1172 14.7969 18.3255 14.4323 18.5859 14.0938L18.2734 13.5469C18.1432 13.3125 18.1823 13.1042 18.3906 12.9219C18.7552 12.6094 19.1719 12.375 19.6406 12.2188C19.901 12.1146 20.0964 12.1797 20.2266 12.4141L20.5391 13C20.9557 12.9219 21.3724 12.9219 21.7891 13L22.1016 12.4141C22.2318 12.1797 22.4271 12.1146 22.6875 12.2188C23.1562 12.375 23.5729 12.6094 23.9375 12.9219C24.1458 13.1042 24.1849 13.3125 24.0547 13.5469L23.7422 14.0938C24.0026 14.4323 24.2109 14.7969 24.3672 15.1875H24.9922C25.2786 15.1875 25.4349 15.3177 25.4609 15.5781C25.5651 16.0729 25.5651 16.5547 25.4609 17.0234C25.4349 17.3099 25.2786 17.4531 24.9922 17.4531H24.3672C24.2109 17.8438 24.0026 18.1953 23.7422 18.5078L24.0547 19.0547C24.1849 19.2891 24.1458 19.4974 23.9375 19.6797C23.5729 19.9922 23.1562 20.2396 22.6875 20.4219C22.4271 20.5 22.2318 20.4219 22.1016 20.1875L21.7891 19.6406C21.3724 19.7188 20.9557 19.7188 20.5391 19.6406ZM20.1484 17.3359C20.6172 17.7005 21.099 17.8047 21.5938 17.6484C22.0885 17.4922 22.388 17.1927 22.4922 16.75C22.6224 16.2812 22.5182 15.7865 22.1797 15.2656C21.7109 14.901 21.2292 14.7969 20.7344 14.9531C20.2396 15.1094 19.9271 15.4219 19.7969 15.8906C19.6927 16.3333 19.8099 16.8151 20.1484 17.3359Z" fill="#EBEBF2"/>
</svg>
