<svg width="24" height="19" viewBox="0 0 24 19" fill="none" xmlns="http://www.w3.org/2000/svg">
<path d="M0.75 4.10938C0.75 3.53646 1.01042 3.14583 1.53125 2.9375L7 0.75V15.75L1.60938 18.2109C1.40104 18.2891 1.20573 18.263 1.02344 18.1328C0.841146 18.0026 0.75 17.8333 0.75 17.625V4.10938ZM8.25 15.75V0.75L15.75 3.25V18.25L8.25 15.75ZM22.3906 0.789062C22.5469 0.736979 22.6771 0.736979 22.7812 0.789062C22.9115 0.815104 23.0156 0.880208 23.0938 0.984375C23.1979 1.08854 23.25 1.21875 23.25 1.375V14.8906C23.25 15.4635 22.9896 15.8542 22.4688 16.0625L17 18.25V3.25L22.3906 0.789062Z" fill="#EBEBF2"/>
</svg>
