<svg width="23" height="19" viewBox="0 0 23 19" fill="none" xmlns="http://www.w3.org/2000/svg">
<path d="M0.25 2.625V16.375C0.25 17.4297 1.07031 18.25 2.125 18.25H4V0.75H2.125C1.07031 0.75 0.25 1.60938 0.25 2.625ZM5.25 18.25H17.75V0.75H5.25V18.25ZM7.75 8.5625C7.75 8.40625 7.86719 8.25 8.0625 8.25H10.25V6.0625C10.25 5.90625 10.3672 5.75 10.5625 5.75H12.4375C12.5938 5.75 12.75 5.90625 12.75 6.0625V8.25H14.9375C15.0938 8.25 15.25 8.40625 15.25 8.5625V10.4375C15.25 10.6328 15.0938 10.75 14.9375 10.75H12.75V12.9375C12.75 13.1328 12.5938 13.25 12.4375 13.25H10.5625C10.3672 13.25 10.25 13.1328 10.25 12.9375V10.75H8.0625C7.86719 10.75 7.75 10.6328 7.75 10.4375V8.5625ZM20.875 0.75H19V18.25H20.875C21.8906 18.25 22.75 17.4297 22.75 16.375V2.625C22.75 1.60938 21.8906 0.75 20.875 0.75Z" fill="white"/>
</svg>
