<svg width="38" height="29" viewBox="-1 -3 30 30">
    <path d="M1.03042188,5.05739062 C0.3434375,5.74442969 0,6.56676562 0,7.52423437 L0,20.5147031 C0,21.4723906 0.3434375,22.2947266 1.03042188,22.9817109 C1.71746094,23.6686953 2.53979687,24.0121875 3.49742969,24.0121875 L3.99705469,24.0121875 L3.99705469,4.02675 L3.49742969,4.02675 C2.53957813,4.02675 1.71729688,4.37040625 1.03042188,5.05739062 L1.03042188,5.05739062 Z"></path>
    <path d="M19.9853281,1.52867969 C19.9853281,1.11228906 19.8396953,0.758460938 19.5481562,0.466976563 C19.2569453,0.175492188 18.9028437,0.029859375 18.4866172,0.029859375 L9.49314844,0.029859375 C9.07686719,0.029859375 8.72298437,0.175492188 8.43144531,0.466976563 C8.13996094,0.758296875 7.99427344,1.11223438 7.99427344,1.52867969 L7.99427344,4.02675 L5.49609375,4.02675 L5.49609375,24.0121875 L22.4833984,24.0121875 L22.4833984,4.02675 L19.9853281,4.02675 L19.9853281,1.52867969 L19.9853281,1.52867969 Z M9.99277344,2.02830469 L17.9869375,2.02830469 L17.9869375,4.02675 L9.99277344,4.02675 L9.99277344,2.02830469 L9.99277344,2.02830469 Z M19.9853281,15.5183984 C19.9853281,15.6644141 19.9385703,15.7837969 19.8449453,15.87775 C19.751375,15.9711016 19.6316641,16.0180781 19.4860312,16.0180781 L15.9886016,16.0180781 L15.9886016,19.5155078 C15.9886016,19.6610859 15.9414609,19.7809063 15.8478906,19.8744219 C15.7547031,19.9679922 15.6348828,20.0148047 15.4890859,20.0148047 L12.4911719,20.0148047 C12.3453203,20.0148047 12.2257187,19.9679922 12.1320391,19.8744219 C12.0384687,19.7808516 11.9916016,19.6610859 11.9916016,19.5155078 L11.9916016,16.0180781 L8.49417187,16.0180781 C8.34826562,16.0180781 8.22871875,15.9711016 8.13503906,15.87775 C8.04130469,15.7837422 7.99449219,15.6644141 7.99449219,15.5183984 L7.99449219,12.5207031 C7.99449219,12.3746875 8.04130469,12.2549766 8.13503906,12.1613516 C8.2285,12.0678906 8.34826562,12.0211328 8.49389844,12.0211328 L11.9913281,12.0211328 L11.9913281,8.52359375 C11.9913281,8.37779688 12.0381406,8.25819531 12.131875,8.16446094 C12.2255547,8.07078125 12.3451016,8.02402344 12.4910078,8.02402344 L15.4888672,8.02402344 C15.6346094,8.02402344 15.754375,8.07078125 15.8477812,8.16446094 C15.9413516,8.25819531 15.9884922,8.37779688 15.9884922,8.52359375 L15.9884922,12.0210781 L19.4859219,12.0210781 C19.6315547,12.0210781 19.7513203,12.0678359 19.8448359,12.1612969 C19.9382422,12.2549219 19.985,12.3746328 19.985,12.5206484 L19.985,15.5183438 L19.9853281,15.5183438 L19.9853281,15.5183984 Z"></path>
    <path d="M26.9491797,5.05739062 C26.2621406,4.37040625 25.43975,4.02675 24.4821719,4.02675 L23.9824922,4.02675 L23.9824922,24.0121875 L24.4821719,24.0121875 C25.4398047,24.0121875 26.2621406,23.66875 26.9491797,22.9817109 C27.636,22.2947266 27.9796016,21.4723359 27.9796016,20.5147031 L27.9796016,7.52423437 C27.9795469,6.56676562 27.6359453,5.74442969 26.9491797,5.05739062 L26.9491797,5.05739062 Z"></path>
</svg>