<svg width="38" height="29" viewBox="0 0 38 29" fill="none" xmlns="http://www.w3.org/2000/svg">
<path fill-rule="evenodd" clip-rule="evenodd" d="M14.8809 0.0516356C14.3702 0.17941 14.0834 0.40437 13.8322 0.874335C13.7013 1.11934 13.6934 1.37299 13.6934 5.33334V9.53243L13.9166 9.89372C14.3288 10.5604 14.5686 10.6296 16.567 10.6588L18.2579 10.6834V12.1617V13.6399H11.7376C7.27966 13.6399 5.14511 13.6652 4.98864 13.7197C4.53996 13.8761 4.52732 13.9438 4.52732 16.1909V18.2274L2.83889 18.256C1.00045 18.2871 0.827363 18.3212 0.416394 18.7321C-0.0076856 19.1561 9.43696e-06 19.0664 9.43696e-06 23.6083V27.7924L0.172719 28.1194C0.286244 28.3343 0.468929 28.523 0.705004 28.6692L1.06458 28.8919H5.26367H9.46285L9.77398 28.7256C10.6026 28.2828 10.6124 28.222 10.6124 23.5853C10.6124 18.0958 10.7199 18.2977 7.77442 18.253L6.08599 18.2274V16.713V15.1986H12.1719H18.2579V16.714V18.2294L16.567 18.254C14.5686 18.2832 14.3288 18.3523 13.9166 19.019L13.6934 19.3803V23.5794C13.6934 29.4807 13.1052 28.8919 19 28.8919C24.8948 28.8919 24.3066 29.4807 24.3066 23.5794V19.3803L24.0833 19.019C23.6711 18.3523 23.4314 18.2832 21.4329 18.254L19.7422 18.2294V16.714V15.1986H25.8281H31.9141V16.713V18.2274L30.2256 18.253C27.2801 18.2977 27.3875 18.0958 27.3875 23.5853C27.3875 28.222 27.3974 28.2828 28.226 28.7256L28.5371 28.8919H32.7363H36.9354L37.295 28.6692C37.531 28.523 37.7137 28.3343 37.8273 28.1194L38 27.7924V23.607C38 19.0804 38.0117 19.2238 37.6016 18.7724C37.1979 18.3281 36.9923 18.2845 35.1611 18.2548L33.4727 18.2274V16.1909C33.4727 13.9438 33.46 13.8761 33.0113 13.7197C32.8549 13.6652 30.7203 13.6399 26.2624 13.6399H19.7422V12.1246V10.6092L21.4329 10.5846C23.4314 10.5554 23.6711 10.4862 24.0833 9.81943L24.3066 9.45824V5.2962C24.3066 -0.548668 24.8672 0.0259858 19.1485 0.00841081C16.9238 0.00157082 15.0033 0.0209506 14.8809 0.0516356ZM22.7852 5.3361V9.12982L21.3935 9.08479C20.6282 9.06009 18.9248 9.01887 17.6084 8.99312L15.2148 8.94648V5.24442V1.54237H19H22.7852V5.3361ZM7.28546 19.8743H9.05473V23.6223V27.3705H5.26956H1.48438V23.5733V19.7763L3.50038 19.8253C4.60912 19.8523 6.31247 19.8743 7.28546 19.8743ZM21.016 19.8743H22.7852V23.6223V27.3705H19H15.2148V23.5733V19.7763L17.2308 19.8253C18.3396 19.8523 20.0429 19.8743 21.016 19.8743ZM36.5156 23.5111V27.222L35.458 27.2221C34.8763 27.2222 33.1729 27.2443 31.6728 27.2713L28.9453 27.3203V23.5602V19.8001H32.7304H36.5156V23.5111Z" fill="white"/>
</svg>
