<svg xmlns="http://www.w3.org/2000/svg" xmlns:android="http://schemas.android.com/apk/res/android" width="140dp" height="34dp" viewportWidth="140" viewportHeight="34">
	<path fill="@color/white" d="M61.3,11.8h5.9v18.1h-5.9z"/>
	<path fill="@color/white" d="M69.1,11.8H75v2.4h0.1c1.2,-1.9 3.1,-2.8 5.2,-2.8c1.8,0 3.6,1.1 3.7,2.8h0.1c1.2,-1.9 3.1,-2.8 5.2,-2.8c2.3,0 4.1,1.2 4.1,3.9v14.6h-5.9V17.1c0,-0.9 -0.3,-1.6 -1.4,-1.6c-0.7,0 -1.1,0.3 -1.6,0.8l-0.3,0.4v13.1h-5.9V17.1c0,-0.9 -0.3,-1.6 -1.4,-1.6c-0.7,0 -1.1,0.3 -1.6,0.8L75,16.8v13.1h-5.9L69.1,11.8L69.1,11.8z"/>
	<path fill="@color/white" d="M95.3,4.1h5.8v8.7h0.1c0.9,-0.9 2.3,-1.6 3.6,-1.6c4.1,0 6.2,4.1 6.2,9.3c0,4.1 -1.7,9.6 -6.7,9.6c-2.2,0 -3.8,-1 -4.9,-2.8l-1.1,2.6h-3C95.3,29.9 95.3,4.1 95.3,4.1zM101.1,24.1c-0.1,1.6 0.8,2.3 1.9,2.3c1.6,0 1.9,-1.6 1.9,-5V20c0,-3.6 0,-5.4 -1.8,-5.4c-0.8,0 -1.2,0.4 -1.6,0.8l-0.3,0.3L101.1,24.1L101.1,24.1z"/>
	<path fill="@color/white" d="M112.4,4.1h5.9v25.8h-5.9z"/>
	<path fill="@color/white" d="M125.8,21.6c0,1.6 0.3,4.3 2.7,4.3c1.4,0 2.7,-1 2.9,-2.4l4,1.4c-0.3,0.9 -2.1,5 -7.2,5c-5.6,0 -8.1,-4.6 -8.1,-9.6c0,-5.2 2.7,-9.6 8.1,-9.6c5.7,0 7.7,4.8 7.7,9.7v1.2L125.8,21.6L125.8,21.6zM130.1,18.2c0,-1.7 -0.2,-3.7 -2.2,-3.7c-1.7,0 -2.2,2 -2.2,3.7H130.1z"/>
	<path fill="@color/white" d="M61.3,4h5.9v5.2h-5.9z"/>
	<path fill="@color/white" d="M136.2,28c0,-1 0.9,-1.9 1.9,-1.9S140,27 140,28c0,1 -0.9,1.9 -1.9,1.9S136.2,29 136.2,28M136.6,28c0,0.9 0.7,1.6 1.6,1.6c0.9,0 1.6,-0.7 1.6,-1.6c0,-0.9 -0.7,-1.6 -1.6,-1.6C137.2,26.5 136.6,27.1 136.6,28M139.1,29h-0.3l-0.7,-0.9h-0.3V29h-0.3v-2.1h0.9c0.2,0 0.3,0 0.6,0.1c0.2,0.1 0.3,0.3 0.3,0.4c0,0.3 -0.3,0.6 -0.7,0.6L139.1,29zM138.1,27.8c0.3,0 0.8,0.1 0.8,-0.3c0,-0.3 -0.3,-0.3 -0.4,-0.3h-0.7v0.7L138.1,27.8L138.1,27.8z"/>
	<path fill="@color/white" d="M32.8,4l18.2,0l0,5l-5.8,0l0,20.8l-6.5,0l0,-20.8l-5.9,0z"/>
	<path fill="@color/white" d="M48.4,11.6h5.8v2.8h0.1c0.8,-2.2 3.3,-3.2 5.7,-3.2V17c-0.8,-0.3 -1.6,-0.4 -2.3,-0.4c-2,0 -2.6,0.4 -3.2,1.4v11.8h-5.9L48.4,11.6L48.4,11.6z"/>
	<path fill="@color/white" d="M21.1,23.4c-0.1,0.3 -0.2,0.8 -0.3,1c-0.1,0.1 -0.1,0.2 -0.1,0.3c-0.3,0.3 -0.4,0.3 -0.4,0.4c-1.3,1.1 -2.4,1.7 -4.1,2.2c-0.6,0.2 -1.9,0.6 -3.4,0.4l-2.6,1.3c3,0.7 5.6,0.1 6.6,-0.3c1.9,-0.6 3.1,-1.3 4.7,-2.6c0.3,-0.3 1.9,-1.6 3,-3.9c0.2,-0.3 0.3,-0.9 0.6,-1.3L21.1,23.4z"/>
	<path fill="@color/white" d="M12.2,5.7c0.1,0 0.2,0 0.3,0c0.2,0 0.3,0 0.4,0c-0.3,0.1 -0.6,0.2 -0.9,0.3l2.2,1.2c1.8,-0.1 3.4,0.8 4.7,2c-0.3,0 -0.6,0.1 -0.9,0.1l3.8,2.1v-0.1c0.2,0.1 0.3,0.2 0.3,0.3l2.6,1.3c0,-0.1 -0.1,-0.2 -0.1,-0.3s0,-0.1 -0.1,-0.2c0,-0.1 -0.1,-0.2 -0.1,-0.3c-0.8,-2.1 -2.2,-3.9 -3.9,-5.3c-0.1,-0.1 -0.1,-0.1 -0.2,-0.2c-2.8,-2.1 -5.4,-2.6 -6.8,-2.7c-0.1,0 -0.2,0 -0.2,0c-0.9,-0.1 -1.7,0 -2.6,0.1c-0.1,0 -0.1,0 -0.2,0c0,0.2 -0.2,0.2 -0.6,0.3C9.8,4.5 9.6,4.5 9.3,4.6l2.3,1.2C12,5.7 12.1,5.7 12.2,5.7"/>
	<path fill="@color/white" d="M2.4,21c-0.3,-0.9 -0.7,-2 -0.7,-2.4c-0.1,-1 -0.1,-1 -0.1,-2.1c0,-0.3 0,-0.8 0.1,-1.1c0.1,-0.8 0.3,-1.7 0.8,-2.9V9.1c-0.3,0.6 -0.8,1.1 -1.1,1.8c-0.9,1.9 -1.1,3.2 -1.3,4.1C0,15.6 0,16.1 0,16.5c0,1.1 0,1.1 0.1,2.2c0.1,0.7 0.4,2.2 0.9,3.2c0.3,0.9 0.8,1.6 1.1,2.1c0.1,0.1 0.1,0.1 0.1,0.2c0.1,0.1 0.1,0.2 0.2,0.2v-3.7C2.6,20.9 2.4,20.9 2.4,21"/>
	<path fill="@color/white" d="M21.6,15c-0.2,0.3 -0.3,0.4 -0.6,0.8c0.7,1.1 1.1,2.2 1.4,3.4c0.1,-0.2 0.3,-0.3 0.3,-0.6c1,-1.7 1.2,-3.7 0.4,-5.8c0,-0.1 -0.1,-0.1 -0.1,-0.2c-0.1,-0.2 -0.1,-0.3 -0.2,-0.4c-0.1,-0.1 -0.2,-0.2 -0.2,-0.3c-0.1,-0.2 -0.2,-0.3 -0.3,-0.3L22,11.4C22.3,12.7 22.2,13.9 21.6,15"/>
	<path fill="@color/white" d="M11.4,5.8L11.4,5.8C10.8,5.9 10.3,6 9.8,6.1c0.4,0.1 0.9,0.3 1.3,0.3c0.3,-0.3 0.8,-0.4 1.1,-0.6l-0.3,-0.2C11.7,5.8 11.6,5.8 11.4,5.8"/>
	<path fill="@color/white" d="M24.8,21.5l7.9,-4.3L24.9,13C26.1,16.4 25.7,19.2 24.8,21.5"/>
	<path fill="@color/white" d="M13.9,7.1L13.9,7.1c-0.3,0 -0.7,0.1 -0.9,0.2c1,0.6 2.2,1.4 3.2,2.3c0.8,-0.2 1.4,-0.3 2.2,-0.4l-4,-2.1C14.2,7.1 14.1,7.1 13.9,7.1"/>
	<path fill="@color/white" d="M17.7,23.5c-4.4,0.7 -9.1,-1.4 -11.8,-4.9c-1.1,1.2 -1.8,2.4 -2,3.6c-0.1,0.4 -0.1,0.9 -0.1,1.1C4,23.6 4.1,23.7 4.3,24c0.7,0.8 2.4,2.7 5.3,3.4c1,0.3 2,0.3 2.9,0.4l8.4,-4.7c0.1,-0.3 0.1,-0.7 0.1,-1C20.2,22.9 19,23.4 17.7,23.5"/>
	<path fill="@color/white" d="M6,15.9c1,-0.9 2.2,-2 3.4,-2.8c-0.1,-0.2 -0.2,-0.3 -0.2,-0.6l0,0C8.7,10.9 8.9,9.4 9.7,8c0.1,-0.1 0.1,-0.2 0.2,-0.2C8.9,7.6 8,7.5 7.2,7.6C6.8,8 6.4,8.5 6,9c-0.6,1 -0.9,2.2 -0.9,3.3c0,0.9 0.2,1.7 0.4,2.6C5.7,15.2 5.9,15.6 6,15.9"/>
	<path fill="@color/white" d="M10.8,12c0,0.1 0.1,0.1 0.1,0.1c1.1,-0.7 2.3,-1.3 3.6,-1.8c-1,-0.9 -2.1,-1.6 -3,-2c-0.1,0.2 -0.3,0.3 -0.4,0.6C10.4,9.8 10.3,10.9 10.8,12L10.8,12z"/>
	<path fill="@color/white" d="M17.2,15.9c0.6,-0.1 1.1,-0.3 1.6,-0.4c-0.9,-1.3 -1.8,-2.6 -3,-3.7c-0.2,0.1 -0.3,0.2 -0.6,0.2c-1.2,0.4 -2.3,1 -3.4,1.8C13,15.2 15.2,16.1 17.2,15.9"/>
	<path fill="@color/white" d="M6.2,5.9C7.1,5.5 7.9,5 9.4,4.6l-7,-3.8v8.4C4.1,7.1 5.9,5.9 6.2,5.9"/>
	<path fill="@color/white" d="M20.1,14.1c0.6,-0.9 0.7,-2 0.3,-3.1l0,0c0,-0.1 -0.1,-0.2 -0.1,-0.3c-0.8,0 -1.7,0.1 -2.7,0.3C18.4,12.1 19.3,13.1 20.1,14.1L20.1,14.1"/>
	<path fill="@color/white" d="M17.3,21.9c1.4,-0.2 2.7,-0.7 3.6,-1.4c-0.3,-1.1 -0.8,-2.4 -1.4,-3.7c-0.7,0.3 -1.3,0.6 -2.2,0.8c-2.7,0.3 -5.4,-0.9 -7.2,-2.9c-1,0.8 -2.2,1.8 -3.2,2.8C9.2,20.5 13.4,22.5 17.3,21.9"/>
	<path fill="@color/white" d="M4.8,17.1c-0.3,-0.6 -0.6,-1.1 -0.9,-1.8c-0.4,-1.7 -0.6,-3.4 -0.2,-5.1c-0.3,0.3 -0.6,0.9 -0.9,1.3c-0.1,0.3 -0.3,0.6 -0.3,0.8v8.3C3,19.7 3.8,18.4 4.8,17.1"/>
	<path fill="@color/white" d="M23.3,20.6c-0.2,0.2 -0.3,0.3 -0.6,0.6c0,0.2 0,0.3 0.1,0.7C23,21.5 23.2,21 23.3,20.6"/>
	<path fill="@color/white" d="M3.1,25.2c-0.2,-0.3 -0.3,-0.4 -0.6,-0.7v9l7.6,-4.1c-0.3,-0.1 -0.6,-0.1 -0.9,-0.2C5.9,28.2 3.8,26 3.1,25.2"/>
	<path fill="@color/white" d="M25.7,27.8c0,-1 0.9,-1.9 1.9,-1.9c1,0 1.9,0.9 1.9,1.9s-0.9,1.9 -1.9,1.9C26.6,29.7 25.7,28.9 25.7,27.8M26,27.8c0,0.9 0.7,1.6 1.6,1.6c0.9,0 1.6,-0.7 1.6,-1.6c0,-0.9 -0.7,-1.6 -1.6,-1.6C26.7,26.4 26,27 26,27.8M28.6,28.9h-0.3L27.6,28h-0.3v0.9h-0.3v-2.1h0.9c0.2,0 0.3,0 0.6,0.1c0.2,0.1 0.3,0.3 0.3,0.4c0,0.3 -0.3,0.6 -0.7,0.6L28.6,28.9zM27.6,27.7c0.3,0 0.8,0.1 0.8,-0.3c0,-0.3 -0.3,-0.3 -0.4,-0.3h-0.6v0.7L27.6,27.7L27.6,27.7z"/>
</svg>
