<svg width="18" height="27" viewBox="0 0 18 27" fill="none" xmlns="http://www.w3.org/2000/svg">
<path d="M13.0412 9.3916C13.0412 11.7521 11.1159 13.6773 8.75546 13.6773C6.39497 13.6773 4.46974 11.7521 4.46974 9.3916C4.46974 7.03111 6.39497 5.10589 8.75546 5.10589C11.1159 5.10589 13.0412 7.03111 13.0412 9.3916ZM17.3269 9.3916C17.3269 4.65388 13.4932 0.820172 8.75546 0.820172C4.01773 0.820172 0.184029 4.65388 0.184029 9.3916C0.184029 10.4128 0.301216 11.4675 0.736484 12.3883L6.84698 25.3458C7.1818 26.0824 7.95189 26.5345 8.75546 26.5345C9.55903 26.5345 10.3291 26.0824 10.6807 25.3458L16.7744 12.3883C17.2097 11.4675 17.3269 10.4128 17.3269 9.3916Z" fill="#EBEBF2"/>
</svg>
