<svg width="38" height="29" id="vssicon-maintenance" viewBox="0 0 36 35">
    <path d="M0.0173817568,24.6950214 C0.0173817568,24.0756076 0.230223072,23.5438573 0.655857015,23.0997461 L12.0978001,11.1615466 C12.5346324,12.3068681 13.1759072,13.3206822 14.0215516,14.2030132 C14.867269,15.0854174 15.8389433,15.7545176 16.9366718,16.210314 L5.47793124,28.1660414 C5.06349563,28.598443 4.55944903,28.8146438 3.96579143,28.8146438 C3.38333217,28.8146438 2.87371075,28.598443 2.43682979,28.166017 L0.655857015,26.2727445 C0.230223072,25.852028 0.0173817568,25.3261203 0.0173817568,24.6950214 L0.0173817568,24.6950214 L0.0173817568,24.6950214 L0.0173817568,24.6950214 Z M3.96579143,23.5730704 C3.96579143,23.8769103 4.07219992,24.139852 4.28501689,24.3618954 C4.49783386,24.5839632 4.74986934,24.6950214 5.04109897,24.6950214 C5.3323286,24.6950214 5.58433973,24.5839632 5.79718104,24.3618954 C6.00999801,24.139852 6.1164065,23.8769103 6.1164065,23.5730704 C6.1164065,23.2692061 6.00999801,23.0062401 5.79718104,22.7841967 C5.58436407,22.5621532 5.33235294,22.4511194 5.04109897,22.4511194 C4.74986934,22.4511194 4.49783386,22.5621532 4.28501689,22.7841967 C4.07219992,23.0062401 3.96579143,23.2691818 3.96579143,23.5730704 L3.96579143,23.5730704 L3.96579143,23.5730704 L3.96579143,23.5730704 Z M12.5682517,7.8658049 C12.5682517,5.7037237 13.3047123,3.8542707 14.7776336,2.3173972 C16.2506036,0.780572399 18.0231533,0.0121720986 20.0954044,0.0121720986 C20.7450537,0.0121720986 21.4254983,0.108599499 22.1367627,0.301429899 C22.8480758,0.494260299 23.4501078,0.765990199 23.9429317,1.1165953 C24.1221294,1.245157 24.211716,1.4087744 24.211716,1.6074474 C24.211716,1.8061204 24.1221294,1.969762 23.9429317,2.0983237 L19.0200725,5.0609639 L19.0200725,8.9877802 L22.2627439,10.8635006 C22.3188086,10.828445 22.7612401,10.5450055 23.5901113,10.0132552 C24.4190069,9.4815049 25.1778642,9.0081807 25.8667319,8.5933069 C26.5556484,8.1784087 26.9504382,7.9709961 27.0512232,7.9709961 C27.2192468,7.9709961 27.3508759,8.0294466 27.4461104,8.1462987 C27.5412962,8.2631752 27.5888891,8.4092647 27.5888891,8.5845673 C27.5888891,9.0403393 27.460084,9.6597774 27.202425,10.4427842 C26.6760304,12.0088464 25.7546999,13.2797596 24.4386039,14.255621 C23.1224836,15.2315069 21.6747342,15.7194376 20.0954044,15.7194376 C18.0231533,15.7194376 16.2505793,14.951013 14.7776336,13.4141882 C13.3047123,11.8773391 12.5682517,10.0278861 12.5682517,7.8658049 L12.5682517,7.8658049 L12.5682517,7.8658049 L12.5682517,7.8658049 Z"></path>
</svg>