<svg width="33" height="31" viewBox="0 0 33 31" fill="none" xmlns="http://www.w3.org/2000/svg">
<path d="M15.6395 15.6839C15.6395 18.0444 13.7143 19.9696 11.3538 19.9696C8.99327 19.9696 7.06804 18.0444 7.06804 15.6839C7.06804 13.3234 8.99327 11.3982 11.3538 11.3982C13.7143 11.3982 15.6395 13.3234 15.6395 15.6839ZM28.4966 24.2553C28.4966 25.4272 27.5424 26.3982 26.3538 26.3982C25.1819 26.3982 24.2109 25.444 24.2109 24.2553C24.2109 23.0835 25.1819 22.1125 26.3538 22.1125C27.5256 22.1125 28.4966 23.0835 28.4966 24.2553ZM28.4966 7.11248C28.4966 8.28435 27.5424 9.25534 26.3538 9.25534C25.1819 9.25534 24.2109 8.30109 24.2109 7.11248C24.2109 5.9406 25.1819 4.96962 26.3538 4.96962C27.5256 4.96962 28.4966 5.9406 28.4966 7.11248ZM22.068 14.1605C22.068 13.9261 21.9006 13.7085 21.6663 13.6582L19.1216 13.2732C18.9709 12.8044 18.7701 12.3524 18.5524 11.9004C19.0212 11.2475 19.5234 10.6448 20.0089 9.99194C20.0759 9.8915 20.1261 9.79105 20.1261 9.67386C20.1261 9.20511 18.1506 7.39708 17.7154 6.99529C17.6149 6.91159 17.4977 6.86136 17.3638 6.86136C17.2466 6.86136 17.1294 6.89484 17.029 6.97855L15.0535 8.46851C14.6518 8.26761 14.2332 8.08346 13.798 7.94953L13.4129 5.38815C13.3794 5.15377 13.1451 4.96962 12.9107 4.96962H9.79684C9.56246 4.96962 9.36157 5.13703 9.29461 5.37141C9.07697 6.19172 8.99327 7.11248 8.90956 7.94953C8.45755 8.1002 8.03903 8.26761 7.6205 8.48525L5.69528 6.97855C5.59483 6.91159 5.47764 6.86136 5.34371 6.86136C4.85822 6.86136 2.98322 8.88703 2.6484 9.33904C2.5647 9.43949 2.53121 9.55667 2.53121 9.67386C2.53121 9.79105 2.58144 9.90824 2.6484 10.0087C3.18412 10.6448 3.68635 11.2643 4.1551 11.9339C3.93746 12.3524 3.75331 12.771 3.61938 13.2062L1.02452 13.608C0.806884 13.6415 0.639473 13.8926 0.639473 14.1102V17.2073C0.639473 17.4417 0.806884 17.6594 1.04126 17.6928L3.5859 18.0946C3.73657 18.5634 3.93746 19.0154 4.17184 19.4674C3.68635 20.1203 3.18412 20.7397 2.69862 21.3759C2.63166 21.4763 2.58144 21.5768 2.58144 21.694C2.58144 22.1794 4.55688 23.9707 4.99215 24.3725C5.0926 24.4562 5.20979 24.5065 5.34371 24.5065C5.4609 24.5065 5.59483 24.473 5.67854 24.3893L7.65398 22.8993C8.05577 23.1002 8.47429 23.2844 8.90956 23.4183L9.29461 25.9797C9.32809 26.214 9.56246 26.3982 9.79684 26.3982H12.9107C13.1451 26.3982 13.3459 26.2308 13.4129 25.9964C13.6305 25.1761 13.7143 24.2553 13.798 23.4015C14.25 23.2676 14.6685 23.1002 15.087 22.8826L17.0122 24.3893C17.1127 24.4562 17.2299 24.5065 17.3638 24.5065C17.8493 24.5065 19.7243 22.464 20.0591 22.012C20.1428 21.9283 20.1763 21.8111 20.1763 21.694C20.1763 21.56 20.1261 21.4596 20.0591 21.3591C19.5234 20.723 19.0212 20.1036 18.5524 19.4339C18.7701 19.0154 18.9542 18.5969 19.0881 18.1616L21.683 17.7598C21.9006 17.7263 22.068 17.4752 22.068 17.2576V14.1605ZM32.7823 23.0835C32.7823 22.8323 30.6227 22.598 30.2879 22.5645C30.154 22.2631 29.9866 21.9618 29.7857 21.694C29.9363 21.3591 30.6395 19.685 30.6395 19.3837C30.6395 19.3502 30.6227 19.3 30.5725 19.2665C30.3716 19.1493 28.5803 18.0946 28.4966 18.0946L28.3962 18.1281C27.827 18.6973 27.3247 19.3502 26.856 20.0031C26.6886 19.9864 26.5212 19.9696 26.3538 19.9696C26.1863 19.9696 26.0189 19.9864 25.8515 20.0031C25.6841 19.752 24.4285 18.0946 24.2109 18.0946C24.1272 18.0946 22.3359 19.1661 22.135 19.2665C22.0848 19.3 22.068 19.3502 22.068 19.3837C22.068 19.6683 22.7712 21.3591 22.9218 21.694C22.7209 21.9618 22.5535 22.2631 22.4196 22.5645C22.0848 22.598 19.9252 22.8323 19.9252 23.0835V25.4272C19.9252 25.6783 22.0848 25.9127 22.4196 25.9462C22.5535 26.2643 22.7209 26.5489 22.9218 26.8167C22.7712 27.1515 22.068 28.8424 22.068 29.127C22.068 29.1605 22.0848 29.2107 22.135 29.2442C22.3359 29.3614 24.1272 30.4328 24.2109 30.4328C24.4285 30.4328 25.6841 28.7587 25.8515 28.5076C26.0189 28.5243 26.1863 28.5411 26.3538 28.5411C26.5212 28.5411 26.6886 28.5243 26.856 28.5076C27.0234 28.7587 28.279 30.4328 28.4966 30.4328C28.5803 30.4328 30.3716 29.3614 30.5725 29.2442C30.6227 29.2107 30.6395 29.1772 30.6395 29.127C30.6395 28.8256 29.9363 27.1515 29.7857 26.8167C29.9866 26.5489 30.154 26.2643 30.2879 25.9462C30.6227 25.9127 32.7823 25.6783 32.7823 25.4272V23.0835ZM32.7823 5.9406C32.7823 5.68949 30.6227 5.45511 30.2879 5.42163C30.154 5.12029 29.9866 4.81895 29.7857 4.55109C29.9363 4.21627 30.6395 2.54217 30.6395 2.24083C30.6395 2.20734 30.6227 2.15712 30.5725 2.12364C30.3716 2.00645 28.5803 0.951764 28.4966 0.951764L28.3962 0.985246C27.827 1.55444 27.3247 2.20734 26.856 2.86025C26.6886 2.8435 26.5212 2.82676 26.3538 2.82676C26.1863 2.82676 26.0189 2.8435 25.8515 2.86025C25.6841 2.60913 24.4285 0.951764 24.2109 0.951764C24.1272 0.951764 22.3359 2.02319 22.135 2.12364C22.0848 2.15712 22.068 2.20734 22.068 2.24083C22.068 2.52542 22.7712 4.21627 22.9218 4.55109C22.7209 4.81895 22.5535 5.12029 22.4196 5.42163C22.0848 5.45511 19.9252 5.68949 19.9252 5.9406V8.28435C19.9252 8.53547 22.0848 8.76984 22.4196 8.80333C22.5535 9.12141 22.7209 9.40601 22.9218 9.67386C22.7712 10.0087 22.068 11.6995 22.068 11.9841C22.068 12.0176 22.0848 12.0678 22.135 12.1013C22.3359 12.2185 24.1272 13.2899 24.2109 13.2899C24.4285 13.2899 25.6841 11.6158 25.8515 11.3647C26.0189 11.3815 26.1863 11.3982 26.3538 11.3982C26.5212 11.3982 26.6886 11.3815 26.856 11.3647C27.0234 11.6158 28.279 13.2899 28.4966 13.2899C28.5803 13.2899 30.3716 12.2185 30.5725 12.1013C30.6227 12.0678 30.6395 12.0344 30.6395 11.9841C30.6395 11.6828 29.9363 10.0087 29.7857 9.67386C29.9866 9.40601 30.154 9.12141 30.2879 8.80333C30.6227 8.76984 32.7823 8.53547 32.7823 8.28435V5.9406Z" fill="#EBEBF2"/>
</svg>
