<?xml version="1.0" encoding="iso-8859-1"?>
<!-- Generator: Adobe Illustrator 16.0.0, SVG Export Plug-In . SVG Version: 6.00 Build 0)  -->
<!DOCTYPE svg PUBLIC "-//W3C//DTD SVG 1.1//EN" "http://www.w3.org/Graphics/SVG/1.1/DTD/svg11.dtd">
<svg version="1.1" id="Capa_1" xmlns="http://www.w3.org/2000/svg" xmlns:xlink="http://www.w3.org/1999/xlink" x="0px" y="0px"
	 width="235.785px" height="235.785px" viewBox="0 0 235.785 235.785" style="enable-background:new 0 0 235.785 235.785;"
	 xml:space="preserve">
<g>
	<g>
		<path d="M232.822,43.032L206.3,69.547c-1.07,1.082-2.498,1.672-4.083,1.57l-32.126-1.709c-2.745-0.144-4.935-2.338-5.082-5.078
			L163.297,32.2c-0.078-1.523,0.494-3.011,1.571-4.086l26.515-26.51C187.015,0.538,182.531,0,177.975,0
			c-15.07,0-29.244,5.872-39.896,16.531c-15.861,15.85-20.772,39.633-12.521,60.586l0.305,0.79c0.132,0.339,0.259,0.683,0.41,1.022
			c2.882,6.617,6.845,12.454,11.806,17.412c5.386,5.391,11.87,9.588,19.266,12.48l1.044,0.441c0.273,0.118,0.546,0.242,0.824,0.339
			c6.053,2.134,12.415,3.22,18.866,3.22c15.057,0,29.197-5.856,39.823-16.475C232.012,82.235,237.482,62.017,232.822,43.032z"/>
		<path d="M119.602,90.403L4.976,205.021c-0.129,0.399-0.304,0.772-0.53,1.124c-4.95,7.569-3.898,17.7,2.504,24.104
			c6.305,6.311,16.771,7.35,24.163,2.478c0.344-0.226,0.708-0.408,1.086-0.556l1.858-1.859c0.05-0.047,0.103-0.094,0.153-0.146
			l113.439-113.433c-6.482-3.215-12.346-7.42-17.49-12.565C126.047,100.054,122.516,95.447,119.602,90.403z M31.188,225.011
			c-2.538,2.54-5.913,3.937-9.503,3.937c-3.591,0-6.969-1.396-9.505-3.937c-2.537-2.531-3.934-5.911-3.934-9.502
			c0-3.59,1.397-6.96,3.934-9.502c5.069-5.069,13.922-5.069,19,0c2.543,2.542,3.942,5.923,3.942,9.513
			C35.123,219.111,33.724,222.48,31.188,225.011z"/>
		<path d="M21.685,212.822c-0.416,0-1.215,0.105-1.898,0.787c-0.682,0.683-0.784,1.48-0.784,1.9c0,0.415,0.103,1.218,0.784,1.9
			c0.688,0.688,1.483,0.787,1.903,0.787c0.417,0,1.221-0.099,1.903-0.781c0.683-0.688,0.785-1.485,0.785-1.896
			c0-0.421-0.103-1.224-0.785-1.906C22.905,212.927,22.102,212.822,21.685,212.822z"/>
	</g>
</g>
</svg>