<svg width="24" height="35" viewBox="0 0 24 35" fill="none" xmlns="http://www.w3.org/2000/svg">
<path d="M17.7171 12C17.7171 15.1473 15.1501 17.7143 12.0028 17.7143C8.85547 17.7143 6.2885 15.1473 6.2885 12C6.2885 8.85268 8.85547 6.28571 12.0028 6.28571C15.1501 6.28571 17.7171 8.85268 17.7171 12ZM23.4314 12C23.4314 5.68304 18.3198 0.571427 12.0028 0.571427C5.68583 0.571427 0.574219 5.68304 0.574219 12C0.574219 13.3616 0.730469 14.7679 1.31083 15.9955L9.45815 33.2723C9.90458 34.2545 10.9314 34.8571 12.0028 34.8571C13.0742 34.8571 14.101 34.2545 14.5698 33.2723L22.6948 15.9955C23.2751 14.7679 23.4314 13.3616 23.4314 12Z" fill="#211F20"/>
</svg>
