<svg width="4" height="12" viewBox="0 0 4 12" fill="none" xmlns="http://www.w3.org/2000/svg">
<path d="M1.98975 4.15735C1.05225 4.15735 0.302246 4.93079 0.302246 5.84485C0.302246 6.78235 1.05225 7.53235 1.98975 7.53235C2.90381 7.53235 3.67725 6.78235 3.67725 5.84485C3.67725 4.93079 2.90381 4.15735 1.98975 4.15735ZM0.302246 1.71985C0.302246 2.65735 1.05225 3.40735 1.98975 3.40735C2.90381 3.40735 3.67725 2.65735 3.67725 1.71985C3.67725 0.805786 2.90381 0.0323486 1.98975 0.0323486C1.05225 0.0323486 0.302246 0.805786 0.302246 1.71985ZM0.302246 9.96985C0.302246 10.9073 1.05225 11.6573 1.98975 11.6573C2.90381 11.6573 3.67725 10.9073 3.67725 9.96985C3.67725 9.05579 2.90381 8.28235 1.98975 8.28235C1.05225 8.28235 0.302246 9.05579 0.302246 9.96985Z" fill="#EBEBF2"/>
</svg>
