<svg width="17" height="13" viewBox="0 0 17 13" fill="none" xmlns="http://www.w3.org/2000/svg">
<path d="M16.3368 11.0714C16.3368 10.7199 16.0455 10.4286 15.6939 10.4286H1.55106C1.1995 10.4286 0.908203 10.7199 0.908203 11.0714V12.3571C0.908203 12.7087 1.1995 13 1.55106 13H15.6939C16.0455 13 16.3368 12.7087 16.3368 12.3571V11.0714ZM16.3368 5.92857C16.3368 5.57701 16.0455 5.28571 15.6939 5.28571H1.55106C1.1995 5.28571 0.908203 5.57701 0.908203 5.92857V7.21429C0.908203 7.56585 1.1995 7.85714 1.55106 7.85714H15.6939C16.0455 7.85714 16.3368 7.56585 16.3368 7.21429V5.92857ZM16.3368 0.785714C16.3368 0.434151 16.0455 0.142857 15.6939 0.142857H1.55106C1.1995 0.142857 0.908203 0.434151 0.908203 0.785714V2.07143C0.908203 2.42299 1.1995 2.71429 1.55106 2.71429H15.6939C16.0455 2.71429 16.3368 2.42299 16.3368 2.07143V0.785714Z" fill="#414042"/>
</svg>
