<svg width="20" height="21" viewBox="0 0 20 21" fill="none" xmlns="http://www.w3.org/2000/svg">
<path d="M9.93194 19.1773C9.93194 19.2778 9.85381 19.3559 9.75336 19.3559C8.67078 19.3559 7.78908 18.4742 7.78908 17.3916C7.78908 17.2912 7.8672 17.213 7.96765 17.213C8.0681 17.213 8.14622 17.2912 8.14622 17.3916C8.14622 18.2733 8.87167 18.9987 9.75336 18.9987C9.85381 18.9987 9.93194 19.0769 9.93194 19.1773ZM19.0391 15.963C17.3873 14.5679 15.4677 12.0679 15.4677 6.67731C15.4677 4.53446 13.6931 2.19071 10.7355 1.75544C10.7913 1.62151 10.8248 1.47642 10.8248 1.32017C10.8248 0.728655 10.3449 0.248743 9.75336 0.248743C9.16185 0.248743 8.68194 0.728655 8.68194 1.32017C8.68194 1.47642 8.71542 1.62151 8.77122 1.75544C5.81363 2.19071 4.03908 4.53446 4.03908 6.67731C4.03908 12.0679 2.11944 14.5679 0.46765 15.963C0.46765 16.7443 1.11497 17.3916 1.89622 17.3916H6.89622C6.89622 18.9653 8.1797 20.2487 9.75336 20.2487C11.327 20.2487 12.6105 18.9653 12.6105 17.3916H17.6105C18.3918 17.3916 19.0391 16.7443 19.0391 15.963Z" fill="#EBEBF2"/>
</svg>
