<svg width="20" height="37" viewBox="0 0 20 37" fill="none" xmlns="http://www.w3.org/2000/svg">
<path fill-rule="evenodd" clip-rule="evenodd" d="M2.68238 0.481243C-0.855158 4.21198 -0.898753 10.0963 2.58158 14.077C3.56918 15.2066 4.82875 14.3898 3.87766 13.2364C2.81243 11.9447 2.26556 11.017 1.92563 9.92559C1.02412 7.03097 1.69405 3.89929 3.69804 1.63992C4.28501 0.978256 4.35454 0.624289 3.97303 0.241233C3.59024 -0.143116 3.20681 -0.0718242 2.68238 0.481243ZM16.0094 0.252315C15.4582 0.910011 16.1763 1.80984 16.9295 1.40518C17.3452 1.18179 17.3745 0.427497 16.9792 0.122751C16.7405 -0.0612967 16.2131 0.00916428 16.0094 0.252315ZM17.5663 1.76395C17.0636 1.96683 17.027 2.42875 17.4493 3.2391C19.1721 6.54504 18.7768 10.0409 16.3494 12.965C15.7341 13.7062 15.6524 14.0519 16.0082 14.4091C16.4591 14.8618 16.8964 14.7144 17.6005 13.8723C20.1971 10.7674 20.7357 6.45805 18.9743 2.88005C18.4159 1.74594 18.1443 1.53058 17.5663 1.76395ZM5.44791 2.91709C3.13259 5.05991 3.13829 9.49128 5.45922 11.7404C6.25386 12.5105 7.27669 11.5603 6.55875 10.7189C4.86048 8.72905 4.74689 6.13105 6.27833 4.30553C6.89445 3.57109 6.96499 3.16605 6.53944 2.80655C6.20181 2.52129 5.83539 2.55841 5.44791 2.91709ZM13.467 2.80655C13.0414 3.16605 13.112 3.57109 13.7281 4.30553C15.2595 6.13105 15.146 8.72905 13.4477 10.7189C12.7297 11.5603 13.7526 12.5105 14.5472 11.7404C16.3259 10.0167 16.8413 6.81922 15.7057 4.55339C14.903 2.95162 14.0671 2.29947 13.467 2.80655ZM9.28473 4.75064C7.59556 5.22133 6.8034 7.27052 7.73664 8.755C7.95011 9.09447 8.60312 9.68641 8.82633 9.74265C9.06565 9.80296 9.35812 8.73635 5.189 23.0069C1.1779 36.7365 1.25929 36.4255 1.59085 36.7583C2.06957 37.239 2.70234 36.9761 2.92307 36.2048C2.99012 35.9705 3.09773 35.5972 3.16202 35.3752L3.2791 34.9716L6.5845 32.7779C8.40252 31.5714 9.94086 30.5842 10.0032 30.5842C10.0656 30.5842 11.6044 31.5717 13.4229 32.7786L16.7294 34.9729L16.9348 35.7005C17.2604 36.853 17.3495 36.9692 17.9079 36.9692C18.3052 36.9692 18.6256 36.667 18.6256 36.2922C18.6256 36.1518 16.9119 30.1722 14.8174 23.0042C10.6479 8.73524 10.9408 9.80296 11.1801 9.74265C11.2742 9.71892 11.5201 9.54697 11.7267 9.36052C13.8524 7.44155 12.0227 3.98767 9.28473 4.75064ZM10.503 6.3054C11.2962 6.71173 11.3578 7.73521 10.6222 8.28662C10.344 8.49514 9.66246 8.49514 9.38424 8.28662C8.24047 7.42917 9.2404 5.6586 10.503 6.3054ZM10.7638 14.5681L11.4884 17.0568H10.0032H8.51804L9.2426 14.5681C9.64121 13.1992 9.98344 12.0793 10.0032 12.0793C10.023 12.0793 10.3652 13.1992 10.7638 14.5681ZM11.9713 18.6981C12.3475 19.9554 12.8774 21.816 12.8774 21.8796C12.8774 21.9411 12.1267 21.9628 10.0032 21.9628C7.94183 21.9628 7.12907 21.9401 7.12907 21.8825C7.12907 21.8384 7.32497 21.1323 7.56447 20.3134C7.80397 19.4944 8.01633 18.7676 8.03638 18.6981C8.06995 18.5819 8.22658 18.5719 10.0032 18.5719C11.7794 18.5719 11.9366 18.5819 11.9713 18.6981ZM13.4481 23.7484C13.4884 23.8972 13.65 24.4559 13.8071 24.9899C13.9643 25.524 14.0862 25.9652 14.0779 25.9705C14.0697 25.9757 13.1495 26.5845 12.0331 27.3233L10.0032 28.6664L7.97338 27.3233C6.85693 26.5845 5.93702 25.9761 5.9292 25.9712C5.92138 25.9663 6.04233 25.5295 6.19803 25.0006C6.35374 24.4717 6.51506 23.9127 6.55636 23.7584L6.63159 23.4778H10.0032H13.3748L13.4481 23.7484ZM7.27283 28.6931C7.92482 29.1283 8.48742 29.511 8.52301 29.5436C8.55879 29.5764 7.56567 30.2809 6.30012 31.1203C5.04203 31.9548 4.00458 32.6295 3.99474 32.6196C3.97956 32.6044 5.34223 27.8784 5.44018 27.6063C5.47853 27.5 5.5339 27.5329 7.27283 28.6931ZM15.308 30.1126C15.7063 31.4801 16.0239 32.6074 16.0138 32.6175C16.0036 32.6278 14.9661 31.9541 13.7084 31.1206C12.4506 30.287 11.4445 29.5819 11.4725 29.5535C11.6459 29.3783 14.5023 27.5373 14.5388 27.5772C14.5635 27.6042 14.9096 28.7451 15.308 30.1126Z" fill="white"/>
</svg>
