<svg width="37" height="31" viewBox="0 0 37 31" fill="none" xmlns="http://www.w3.org/2000/svg">
<path d="M11.1897 28.1203V22.3949L17.6183 19.6493V24.906L11.1897 28.1203ZM10.1183 20.5199L3.35493 17.6237L10.1183 14.7275L16.8817 17.6237L10.1183 20.5199ZM28.3326 28.1203V22.3949L34.7612 19.6493V24.906L28.3326 28.1203ZM27.2612 20.5199L20.4978 17.6237L27.2612 14.7275L34.0246 17.6237L27.2612 20.5199ZM19.7612 15.6147V11.1449L26.1898 8.39934V12.8525L19.7612 15.6147ZM18.6897 9.26988L11.3069 6.10582L18.6897 2.94175L26.0726 6.10582L18.6897 9.26988ZM36.904 17.9418C36.904 17.088 36.4018 16.3179 35.5982 15.9663L28.3326 12.8525V6.15604C28.3326 5.30224 27.8136 4.53216 27.0268 4.18059L19.5268 0.966307C19.2589 0.849119 18.9743 0.798896 18.6897 0.798896C18.4052 0.798896 18.1206 0.849119 17.8527 0.966307L10.3527 4.18059C9.56587 4.53216 9.04689 5.30224 9.04689 6.15604V12.8525L1.78127 15.9663C0.994437 16.3179 0.475464 17.088 0.475464 17.9418V24.906C0.475464 25.7096 0.927473 26.463 1.66408 26.8145L9.16408 30.5645C9.46542 30.7319 9.7835 30.7989 10.1183 30.7989C10.4531 30.7989 10.7712 30.7319 11.0726 30.5645L18.5726 26.8145C18.6228 26.7978 18.6563 26.781 18.6897 26.7476C18.7232 26.781 18.7567 26.7978 18.8069 26.8145L26.3069 30.5645C26.6083 30.7319 26.9264 30.7989 27.2612 30.7989C27.596 30.7989 27.9141 30.7319 28.2154 30.5645L35.7154 26.8145C36.452 26.463 36.904 25.7096 36.904 24.906V17.9418Z" fill="#EBEBF2"/>
</svg>
