<svg width="16" height="21" viewBox="0 0 16 21" fill="none" xmlns="http://www.w3.org/2000/svg">
<path d="M9.25 5.8125C9.25 6.07292 9.34115 6.29427 9.52344 6.47656C9.70573 6.65885 9.92708 6.75 10.1875 6.75H15.5V19.5625C15.5 19.8229 15.4089 20.0443 15.2266 20.2266C15.0443 20.4089 14.8229 20.5 14.5625 20.5H1.4375C1.17708 20.5 0.955729 20.4089 0.773438 20.2266C0.591146 20.0443 0.5 19.8229 0.5 19.5625V1.4375C0.5 1.17708 0.591146 0.955729 0.773438 0.773438C0.955729 0.591146 1.17708 0.5 1.4375 0.5H9.25V5.8125ZM11.75 15.0312V14.7188C11.75 14.4062 11.5938 14.25 11.2812 14.25H4.71875C4.40625 14.25 4.25 14.4062 4.25 14.7188V15.0312C4.25 15.3438 4.40625 15.5 4.71875 15.5H11.2812C11.5938 15.5 11.75 15.3438 11.75 15.0312ZM11.75 12.5312V12.2188C11.75 11.9062 11.5938 11.75 11.2812 11.75H4.71875C4.40625 11.75 4.25 11.9062 4.25 12.2188V12.5312C4.25 12.8438 4.40625 13 4.71875 13H11.2812C11.5938 13 11.75 12.8438 11.75 12.5312ZM11.75 9.71875C11.75 9.40625 11.5938 9.25 11.2812 9.25H4.71875C4.40625 9.25 4.25 9.40625 4.25 9.71875V10.0312C4.25 10.3438 4.40625 10.5 4.71875 10.5H11.2812C11.5938 10.5 11.75 10.3438 11.75 10.0312V9.71875ZM15.5 5.26562V5.5H10.5V0.5H10.7344C10.9948 0.5 11.2161 0.591146 11.3984 0.773438L15.2266 4.60156C15.4089 4.78385 15.5 5.00521 15.5 5.26562Z" fill="#EBEBF2"/>
</svg>
