<svg width="18" height="18" viewBox="0 0 18 18" fill="#EBEBF2" xmlns="http://www.w3.org/2000/svg">
<path d="M12.213 7.92857C12.213 10.4096 10.1941 12.4286 7.71303 12.4286C5.232 12.4286 3.21303 10.4096 3.21303 7.92857C3.21303 5.44754 5.232 3.42857 7.71303 3.42857C10.1941 3.42857 12.213 5.44754 12.213 7.92857ZM17.3559 16.2857C17.3559 15.9442 17.2153 15.6127 16.9842 15.3817L13.5389 11.9364C14.3525 10.7612 14.7845 9.35491 14.7845 7.92857C14.7845 4.0212 11.6204 0.857142 7.71303 0.857142C3.80566 0.857142 0.641602 4.0212 0.641602 7.92857C0.641602 11.8359 3.80566 15 7.71303 15C9.13937 15 10.5456 14.5681 11.7208 13.7545L15.1662 17.1897C15.3972 17.4308 15.7287 17.5714 16.0702 17.5714C16.7733 17.5714 17.3559 16.9888 17.3559 16.2857Z" fill="black"/>
</svg>
