<svg width="29" height="22" viewBox="0 0 29 22" fill="none" xmlns="http://www.w3.org/2000/svg">
<path d="M26.4276 0.0791016H2.99006C1.6717 0.0791016 0.646309 1.15332 0.646309 2.42285V19.6104C0.646309 20.9287 1.6717 21.9541 2.99006 21.9541H26.4276C27.6971 21.9541 28.7713 20.9287 28.7713 19.6104V2.42285C28.7713 1.15332 27.6971 0.0791016 26.4276 0.0791016ZM26.4276 19.6104H15.4412C15.4901 19.415 15.4901 19.8057 15.4901 18.5361C15.4901 16.9736 13.9764 15.7041 12.1697 15.7041C11.6815 15.7041 11.2908 16.0947 10.0213 16.0947C8.70295 16.0947 8.36115 15.7041 7.82404 15.7041C6.0174 15.7041 4.55256 16.9736 4.55256 18.5361C4.55256 19.8057 4.50373 19.415 4.55256 19.6104H2.99006V5.54785H26.4276V19.6104ZM18.2244 15.7041H23.6932C23.8885 15.7041 24.0838 15.5576 24.0838 15.3135V14.5322C24.0838 14.3369 23.8885 14.1416 23.6932 14.1416H18.2244C17.9803 14.1416 17.8338 14.3369 17.8338 14.5322V15.3135C17.8338 15.5576 17.9803 15.7041 18.2244 15.7041ZM18.2244 12.5791H23.6932C23.8885 12.5791 24.0838 12.4326 24.0838 12.1885V11.4072C24.0838 11.2119 23.8885 11.0166 23.6932 11.0166H18.2244C17.9803 11.0166 17.8338 11.2119 17.8338 11.4072V12.1885C17.8338 12.4326 17.9803 12.5791 18.2244 12.5791ZM18.2244 9.4541H23.6932C23.8885 9.4541 24.0838 9.30762 24.0838 9.06348V8.28223C24.0838 8.08691 23.8885 7.8916 23.6932 7.8916H18.2244C17.9803 7.8916 17.8338 8.08691 17.8338 8.28223V9.06348C17.8338 9.30762 17.9803 9.4541 18.2244 9.4541ZM10.0213 14.1416C11.7303 14.1416 13.1463 12.7744 13.1463 11.0166C13.1463 9.30762 11.7303 7.8916 10.0213 7.8916C8.2635 7.8916 6.89631 9.30762 6.89631 11.0166C6.89631 12.7744 8.2635 14.1416 10.0213 14.1416Z" fill="#EBEBF2"/>
</svg>
