<svg width="21" height="19" viewBox="0 0 21 19" fill="none" xmlns="http://www.w3.org/2000/svg">
<path d="M19.6875 13.5625L16.5625 10.4375C15.9766 9.85156 15 10.2422 15 11.1016V12.625H13.75L11.6797 10.4375L9.57031 12.6641L12.3438 15.6328C12.4219 15.7109 12.5391 15.75 12.6953 15.75H15V17.3125C15 18.1719 15.9766 18.5625 16.5625 17.9766L19.6875 14.8516C20.0781 14.5 20.0781 13.9141 19.6875 13.5625ZM0.46875 6.375H3.75L5.78125 8.60156L7.89062 6.375L5.11719 3.40625C5.03906 3.32812 4.92188 3.25 4.76562 3.25H0.46875C0.195312 3.25 0 3.48438 0 3.71875V5.90625C0 6.17969 0.195312 6.375 0.46875 6.375ZM15 6.375V7.9375C15 8.79688 15.9766 9.1875 16.5625 8.60156L19.6875 5.47656C20.0781 5.125 20.0781 4.53906 19.6875 4.1875L16.5625 1.0625C15.9766 0.476562 15 0.867188 15 1.72656V3.25H12.6953C12.5391 3.25 12.4219 3.32812 12.3438 3.40625L3.75 12.625H0.46875C0.195312 12.625 0 12.8594 0 13.0938V15.2812C0 15.5547 0.195312 15.75 0.46875 15.75H4.76562C4.92188 15.75 5.03906 15.7109 5.11719 15.6328L13.75 6.375H15Z" fill="#EBEBF2"/>
</svg>
