<svg width="1024" height="1024" viewBox="0 0 1024 1024" fill="none" xmlns="http://www.w3.org/2000/svg">
<g clip-path="url(#clip0)">
<path d="M458.682 480.188H494.84V590.918H458.682V480.188Z" fill="#002670"/>
<path d="M506.485 480.188H542.643V494.87H543.256C550.611 483.247 562.255 477.741 575.125 477.741C586.156 477.741 597.188 484.47 597.801 494.87H598.413C605.768 483.247 617.412 477.741 630.282 477.741C644.378 477.741 655.409 485.082 655.409 501.6V590.917H619.251V512.611C619.251 507.105 617.412 502.823 610.671 502.823C606.381 502.823 603.929 504.658 600.865 507.717L599.026 510.164V590.305H562.868V512.611C562.868 507.105 561.029 502.823 554.288 502.823C549.998 502.823 547.546 504.658 544.482 507.717L542.643 510.776V590.917H506.485V480.188Z" fill="#002670"/>
<path d="M667.052 433.083H702.597V486.307H703.21C708.726 480.801 717.306 476.518 725.273 476.518C750.4 476.518 763.27 501.601 763.27 533.412C763.27 558.495 752.852 592.142 722.209 592.142C708.726 592.142 698.92 586.024 692.179 575.012L685.437 590.918H667.052C667.052 590.918 667.052 433.083 667.052 433.083ZM702.597 555.436C701.985 565.224 707.5 569.507 714.242 569.507C724.047 569.507 725.886 559.718 725.886 538.918V530.354C725.886 508.33 725.886 497.318 714.855 497.318C709.952 497.318 707.5 499.765 705.049 502.212L703.21 504.048L702.597 555.436Z" fill="#002670"/>
<path d="M771.851 433.083H808.01V590.918H771.851V433.083Z" fill="#002670"/>
<path d="M853.975 540.141C853.975 549.929 855.813 566.447 870.522 566.447C879.102 566.447 887.069 560.329 888.295 551.765L912.809 560.329C910.97 565.835 899.939 590.918 868.683 590.918C834.363 590.918 819.042 562.776 819.042 532.188C819.042 500.376 835.589 473.459 868.683 473.459C903.616 473.459 915.873 502.823 915.873 532.8V540.141H853.975ZM880.328 519.341C880.328 508.941 879.102 496.706 866.845 496.706C856.426 496.706 853.362 508.941 853.362 519.341H880.328Z" fill="#002670"/>
<path d="M458.682 432.471H494.84V464.282H458.682V432.471Z" fill="#002670"/>
<path d="M917.712 579.295C917.712 573.177 923.228 567.671 929.357 567.671C935.485 567.671 941.001 573.177 941.001 579.295C941.001 585.412 935.485 590.918 929.357 590.918C923.228 590.918 917.712 585.412 917.712 579.295ZM920.164 579.295C920.164 584.801 924.454 589.083 929.97 589.083C935.485 589.083 939.775 584.801 939.775 579.295C939.775 573.789 935.485 569.506 929.97 569.506C923.841 570.118 920.164 573.789 920.164 579.295ZM935.485 585.412H933.647L929.357 579.906H927.518V585.412H925.68V572.565H931.195C932.421 572.565 933.034 572.565 934.873 573.177C936.098 573.789 936.711 575.012 936.711 575.624C936.711 577.459 934.873 579.295 932.421 579.295L935.485 585.412ZM929.357 578.071C931.195 578.071 934.26 578.683 934.26 576.236C934.26 574.401 932.421 574.401 931.808 574.401H927.518V578.683L929.357 578.071Z" fill="#002670"/>
<path d="M284.018 432.471H395.558V463.059H360.012V590.306H320.176V463.059H284.018V432.471Z" fill="#002670"/>
<path d="M379.622 478.964H415.168V496.094H415.781C420.684 482.635 436.005 476.517 450.714 476.517V512C445.811 510.164 440.908 509.553 436.618 509.553C424.361 509.553 420.684 512 417.007 518.117V590.306H380.848L379.622 478.964Z" fill="#002670"/>
<path d="M212.313 551.152C211.7 552.988 211.087 556.046 210.474 557.27C209.861 557.882 209.861 558.493 209.861 559.105C208.023 560.941 207.41 560.941 207.41 561.552C199.443 568.282 192.701 571.952 182.283 575.011C178.606 576.235 170.638 578.682 161.446 577.458L145.511 585.411C163.897 589.693 179.831 586.023 185.96 583.576C197.604 579.905 204.958 575.623 214.764 567.67C216.603 565.835 226.408 557.882 233.15 543.811C234.376 541.976 234.988 538.305 236.827 535.858L212.313 551.152Z" fill="#002670"/>
<path d="M157.769 442.871C158.382 442.871 158.994 442.871 159.607 442.871C160.833 442.871 161.446 442.871 162.059 442.871C160.22 443.483 158.382 444.094 156.543 444.706L170.026 452.047C181.057 451.436 190.863 456.941 198.83 464.283C196.992 464.283 195.153 464.894 193.314 464.894L216.603 477.741V477.13C217.829 477.741 218.442 478.353 218.442 478.965L234.376 486.918C234.376 486.306 233.763 485.694 233.763 485.083C233.763 484.471 233.763 484.471 233.15 483.859C233.15 483.247 232.537 482.636 232.537 482.024C227.634 469.177 219.054 458.165 208.636 449.6C208.023 448.989 208.023 448.989 207.41 448.377C190.25 435.53 174.316 432.471 165.736 431.859C165.123 431.859 164.51 431.859 164.51 431.859C158.994 431.247 154.092 431.859 148.576 432.471C147.963 432.471 147.963 432.471 147.35 432.471C147.35 433.694 146.124 433.694 143.673 434.306C143.06 435.53 141.834 435.53 139.996 436.141L154.092 443.483C156.543 442.871 157.156 442.871 157.769 442.871Z" fill="#002670"/>
<path d="M97.7086 536.471C95.87 530.965 93.4186 524.236 93.4186 521.789C92.8057 515.671 92.8057 515.671 92.8057 508.942C92.8057 507.106 92.8057 504.048 93.4186 502.212C94.0314 497.318 95.2571 491.812 98.3214 484.471V463.671C96.4829 467.342 93.4186 470.401 91.58 474.683C86.0643 486.306 84.8386 494.259 83.6129 499.765C83 503.436 83 506.495 83 508.942C83 515.671 83 515.671 83.6129 522.401C84.2257 526.683 86.0643 535.859 89.1286 541.977C90.9671 547.483 94.0314 551.765 95.87 554.824C96.4829 555.436 96.4829 555.436 96.4829 556.048C97.0957 556.659 97.0957 557.271 97.7086 557.271V534.636C98.9343 535.859 97.7086 535.859 97.7086 536.471Z" fill="#002670"/>
<path d="M215.377 499.764C214.151 501.6 213.539 502.211 211.7 504.658C215.99 511.388 218.441 518.117 220.28 525.458C220.893 524.235 222.119 523.623 222.119 521.788C228.247 511.388 229.473 499.152 224.57 486.305C224.57 485.694 223.957 485.694 223.957 485.082C223.344 483.858 223.344 483.247 222.731 482.635C222.119 482.023 221.506 481.411 221.506 480.8C220.893 479.576 220.28 478.964 219.667 478.964L217.829 477.741C219.667 485.694 219.054 493.035 215.377 499.764Z" fill="#002670"/>
<path d="M152.866 443.483C149.189 444.095 146.125 444.706 143.06 445.318C145.512 445.93 148.576 447.153 151.027 447.153C152.866 445.318 155.93 444.706 157.769 443.483L155.93 442.259C154.705 443.483 154.092 443.483 152.866 443.483Z" fill="#002670"/>
<path d="M234.989 539.529L283.404 513.223L235.602 487.529C242.956 508.329 240.504 525.459 234.989 539.529Z" fill="#002670"/>
<path d="M168.187 451.436C166.349 451.436 163.897 452.048 162.671 452.659C168.8 456.33 176.154 461.224 182.283 466.73C187.186 465.506 190.863 464.895 195.766 464.283L171.251 451.436C170.026 451.436 169.413 451.436 168.187 451.436Z" fill="#002670"/>
<path d="M191.476 551.765C164.51 556.048 135.706 543.201 119.159 521.789C112.417 529.13 108.127 536.471 106.902 543.812C106.289 546.259 106.289 549.318 106.289 550.542C107.515 552.377 108.127 552.989 109.353 554.824C113.643 559.718 124.062 571.342 141.835 575.624C147.963 577.459 154.092 577.459 159.607 578.071L211.087 549.318C211.7 547.483 211.7 545.036 211.7 543.201C206.797 548.095 199.443 551.154 191.476 551.765Z" fill="#002670"/>
<path d="M119.772 505.271C125.901 499.765 133.255 493.035 140.609 488.141C139.996 486.918 139.383 486.306 139.383 484.471C136.319 474.682 137.545 465.506 142.448 456.941C143.061 456.329 143.061 455.718 143.673 455.718C137.545 454.494 132.029 453.882 127.126 454.494C124.675 456.941 122.223 460 119.772 463.059C116.095 469.177 114.256 476.518 114.256 483.247C114.256 488.753 115.482 493.647 116.708 499.153C117.933 500.988 119.159 503.435 119.772 505.271Z" fill="#002670"/>
<path d="M149.189 481.412C149.189 482.024 149.802 482.024 149.802 482.024C156.543 477.742 163.897 474.071 171.865 471.012C165.736 465.506 158.995 461.224 153.479 458.777C152.866 460 151.64 460.612 151.027 462.447C146.737 467.953 146.125 474.683 149.189 481.412Z" fill="#002670"/>
<path d="M188.412 505.271C192.089 504.659 195.153 503.436 198.217 502.824C192.702 494.871 187.186 486.918 179.832 480.188C178.606 480.8 177.993 481.412 176.155 481.412C168.8 483.859 162.059 487.53 155.317 492.424C162.672 500.988 176.155 506.494 188.412 505.271Z" fill="#002670"/>
<path d="M120.997 444.094C126.512 441.647 131.415 438.588 140.608 436.141L97.708 412.894V464.283C108.127 451.435 119.158 444.094 120.997 444.094Z" fill="#002670"/>
<path d="M206.185 494.259C209.862 488.753 210.475 482.023 208.024 475.294C208.024 474.682 207.411 474.071 207.411 473.459C202.508 473.459 196.992 474.071 190.864 475.294C195.766 482.023 201.282 488.141 206.185 494.259Z" fill="#002670"/>
<path d="M189.024 541.976C197.604 540.752 205.571 537.694 211.087 533.411C209.248 526.682 206.184 518.729 202.507 510.776C198.217 512.611 194.539 514.447 189.024 515.67C172.477 517.505 155.929 510.164 144.898 497.929C138.769 502.823 131.415 508.941 125.287 515.058C139.382 533.411 165.122 545.647 189.024 541.976Z" fill="#002670"/>
<path d="M112.417 512.611C110.578 508.941 108.74 505.882 106.901 501.6C104.45 491.2 103.224 480.8 105.676 470.4C103.837 472.235 101.998 475.906 100.16 478.353C99.547 480.188 98.3213 482.023 98.3213 483.247V534.023C101.386 528.517 106.288 520.564 112.417 512.611Z" fill="#002670"/>
<path d="M225.795 534.024C224.57 535.248 223.957 535.859 222.118 537.695C222.118 538.918 222.118 539.53 222.731 541.977C223.957 539.53 225.182 536.471 225.795 534.024Z" fill="#002670"/>
<path d="M101.998 562.165C100.773 560.329 100.16 559.718 98.3213 557.882V612.941L144.898 587.859C143.06 587.247 141.221 587.247 139.383 586.635C119.158 580.518 106.288 567.059 101.998 562.165Z" fill="#002670"/>
<path d="M240.504 578.07C240.504 571.952 246.02 566.447 252.148 566.447C258.277 566.447 263.793 571.952 263.793 578.07C263.793 584.188 258.277 589.694 252.148 589.694C246.02 589.694 240.504 584.799 240.504 578.07ZM242.343 578.07C242.343 583.576 246.633 587.858 252.148 587.858C257.664 587.858 261.954 583.576 261.954 578.07C261.954 572.564 257.664 568.282 252.148 568.282C246.633 569.505 242.343 573.176 242.343 578.07ZM258.277 584.799H256.438L252.148 579.294H250.31V584.799H248.471V571.952H253.987C255.213 571.952 255.826 571.952 257.664 572.564C258.89 573.176 259.503 574.399 259.503 575.011C259.503 576.847 257.664 578.682 255.213 578.682L258.277 584.799ZM252.148 577.458C253.987 577.458 257.051 578.07 257.051 575.623C257.051 573.788 255.213 573.788 254.6 573.788H250.923V578.07L252.148 577.458Z" fill="#002670"/>
</g>
<defs>
<clipPath id="clip0">
<rect width="858" height="208" fill="white" transform="translate(83 408)"/>
</clipPath>
</defs>
</svg>
