<svg width="30" height="24" viewBox="0 0 30 24" fill="none" xmlns="http://www.w3.org/2000/svg">
<path d="M10.4677 19.5022C10.4677 20.674 9.49667 21.645 8.32479 21.645C7.15292 21.645 6.18194 20.674 6.18194 19.5022C6.18194 18.3303 7.15292 17.3593 8.32479 17.3593C9.49667 17.3593 10.4677 18.3303 10.4677 19.5022ZM4.03908 10.9307V10.4285C4.03908 10.3615 4.13953 10.1104 4.18975 10.0602L7.45426 6.79569C7.50448 6.74547 7.7556 6.64502 7.82256 6.64502H10.4677V10.9307H4.03908ZM25.4677 19.5022C25.4677 20.674 24.4967 21.645 23.3248 21.645C22.1529 21.645 21.1819 20.674 21.1819 19.5022C21.1819 18.3303 22.1529 17.3593 23.3248 17.3593C24.4967 17.3593 25.4677 18.3303 25.4677 19.5022ZM29.7534 1.28788C29.7534 0.701938 29.2679 0.216448 28.6819 0.216448H11.5391C10.9531 0.216448 10.4677 0.701938 10.4677 1.28788V4.50216H7.78908C7.1864 4.50216 6.38283 4.83698 5.9643 5.25551L2.64957 8.57024C1.72881 9.491 1.89622 10.8135 1.89622 12.0022V17.3593C1.31028 17.3593 0.824793 17.8448 0.824793 18.4307C0.824793 19.6696 2.1306 19.5022 2.96765 19.5022H4.03908C4.03908 21.8627 5.9643 23.7879 8.32479 23.7879C10.6853 23.7879 12.6105 21.8627 12.6105 19.5022H19.0391C19.0391 21.8627 20.9643 23.7879 23.3248 23.7879C25.6853 23.7879 27.6105 21.8627 27.6105 19.5022C28.4476 19.5022 29.7534 19.6696 29.7534 18.4307V1.28788Z" fill="#EBEBF2"/>
</svg>
