<svg width="68" height="16" viewBox="0 0 68 16" fill="none" xmlns="http://www.w3.org/2000/svg">
<path d="M12.6485 9.96C12.6485 10.9467 12.4285 11.84 11.9885 12.64C11.5618 13.4267 10.9085 14.0533 10.0285 14.52C9.16185 14.9733 8.06185 15.2 6.72852 15.2C4.83518 15.2 3.39518 14.72 2.40852 13.76C1.42185 12.7867 0.928516 11.5067 0.928516 9.92V0.719999H3.94852V9.46C3.94852 10.6333 4.18852 11.46 4.66852 11.94C5.14852 12.42 5.86185 12.66 6.80852 12.66C7.79518 12.66 8.50852 12.4 8.94852 11.88C9.40185 11.36 9.62852 10.5467 9.62852 9.44V0.719999H12.6485V9.96ZM26.5657 11.04C26.5657 12.3067 26.1057 13.32 25.1857 14.08C24.279 14.8267 22.9857 15.2 21.3057 15.2C19.799 15.2 18.4524 14.9133 17.2657 14.34V11.52C17.9457 11.8133 18.6457 12.0867 19.3657 12.34C20.099 12.58 20.8257 12.7 21.5457 12.7C22.2924 12.7 22.819 12.56 23.1257 12.28C23.4457 11.9867 23.6057 11.62 23.6057 11.18C23.6057 10.82 23.479 10.5133 23.2257 10.26C22.9857 10.0067 22.659 9.77333 22.2457 9.56C21.8324 9.33333 21.359 9.09333 20.8257 8.84C20.4924 8.68 20.1324 8.49333 19.7457 8.28C19.359 8.05333 18.9857 7.78 18.6257 7.46C18.279 7.12667 17.9924 6.72667 17.7657 6.26C17.539 5.79333 17.4257 5.23333 17.4257 4.58C17.4257 3.3 17.859 2.30667 18.7257 1.6C19.5924 0.879999 20.7724 0.519999 22.2657 0.519999C23.0124 0.519999 23.719 0.606666 24.3857 0.779999C25.0657 0.953333 25.7724 1.2 26.5057 1.52L25.5257 3.88C24.8724 3.61333 24.2857 3.40667 23.7657 3.26C23.2457 3.11333 22.7124 3.04 22.1657 3.04C21.5924 3.04 21.1524 3.17333 20.8457 3.44C20.539 3.70667 20.3857 4.05333 20.3857 4.48C20.3857 4.98667 20.6124 5.38667 21.0657 5.68C21.519 5.97333 22.1924 6.33333 23.0857 6.76C23.819 7.10667 24.439 7.46667 24.9457 7.84C25.4657 8.21333 25.8657 8.65333 26.1457 9.16C26.4257 9.66667 26.5657 10.2933 26.5657 11.04ZM39.3813 15H31.1613V0.719999H39.3813V3.2H34.1813V6.34H39.0213V8.82H34.1813V12.5H39.3813V15ZM48.5127 0.719999C50.4594 0.719999 51.8927 1.07333 52.8127 1.78C53.7461 2.48667 54.2127 3.56 54.2127 5C54.2127 5.65333 54.0861 6.22667 53.8327 6.72C53.5927 7.2 53.2661 7.61333 52.8527 7.96C52.4527 8.29333 52.0194 8.56667 51.5527 8.78L55.7527 15H52.3927L48.9927 9.52H47.3727V15H44.3527V0.719999H48.5127ZM48.2927 3.2H47.3727V7.06H48.3527C49.3527 7.06 50.0661 6.89333 50.4927 6.56C50.9327 6.22667 51.1527 5.73333 51.1527 5.08C51.1527 4.4 50.9194 3.92 50.4527 3.64C49.9994 3.34667 49.2794 3.2 48.2927 3.2ZM67.9759 11.04C67.9759 12.3067 67.5159 13.32 66.5959 14.08C65.6892 14.8267 64.3959 15.2 62.7159 15.2C61.2092 15.2 59.8625 14.9133 58.6759 14.34V11.52C59.3559 11.8133 60.0559 12.0867 60.7759 12.34C61.5092 12.58 62.2359 12.7 62.9559 12.7C63.7025 12.7 64.2292 12.56 64.5359 12.28C64.8559 11.9867 65.0159 11.62 65.0159 11.18C65.0159 10.82 64.8892 10.5133 64.6359 10.26C64.3959 10.0067 64.0692 9.77333 63.6559 9.56C63.2425 9.33333 62.7692 9.09333 62.2359 8.84C61.9025 8.68 61.5425 8.49333 61.1559 8.28C60.7692 8.05333 60.3959 7.78 60.0359 7.46C59.6892 7.12667 59.4025 6.72667 59.1759 6.26C58.9492 5.79333 58.8359 5.23333 58.8359 4.58C58.8359 3.3 59.2692 2.30667 60.1359 1.6C61.0025 0.879999 62.1825 0.519999 63.6759 0.519999C64.4225 0.519999 65.1292 0.606666 65.7959 0.779999C66.4759 0.953333 67.1825 1.2 67.9159 1.52L66.9359 3.88C66.2825 3.61333 65.6959 3.40667 65.1759 3.26C64.6559 3.11333 64.1225 3.04 63.5759 3.04C63.0025 3.04 62.5625 3.17333 62.2559 3.44C61.9492 3.70667 61.7959 4.05333 61.7959 4.48C61.7959 4.98667 62.0225 5.38667 62.4759 5.68C62.9292 5.97333 63.6025 6.33333 64.4959 6.76C65.2292 7.10667 65.8492 7.46667 66.3559 7.84C66.8759 8.21333 67.2759 8.65333 67.5559 9.16C67.8359 9.66667 67.9759 10.2933 67.9759 11.04Z" fill="#EBEBF2"/>
</svg>
