<svg width="38" height="29" id="vssicon-utilization" viewBox="9 0 36 33">
    <path d="M12,0 L42,0 C42.821,0 43.525,0.295 44.116,0.884 C44.705,1.474 45,2.179 45,3 L45,6 C45,6.82 44.705,7.525 44.116,8.115 C43.525,8.705 42.821,9 42,9 L12,9 C11.18,9 10.475,8.705 9.885,8.115 C9.295,7.525 9,6.82 9,6 L9,3 C9,2.179 9.295,1.474 9.885,0.884 C10.475,0.295 11.18,0 12,0 C12,0 11.18,0 12,0 L12,0 L12,0 Z M12,12 L42,12 C42.821,12 43.525,12.295 44.116,12.884 C44.705,13.474 45,14.179 45,15 L45,18 C45,18.82 44.705,19.525 44.116,20.115 C43.525,20.705 42.821,21 42,21 L12,21 C11.18,21 10.475,20.705 9.885,20.115 C9.295,19.525 9,18.82 9,18 L9,15 C9,14.179 9.295,13.474 9.885,12.884 C10.475,12.295 11.18,12 12,12 C12,12 11.18,12 12,12 L12,12 L12,12 Z M12,24 L42,24 C42.821,24 43.525,24.295 44.116,24.884 C44.705,25.474 45,26.179 45,27 L45,30 C45,30.82 44.705,31.525 44.116,32.115 C43.525,32.705 42.821,33 42,33 L12,33 C11.18,33 10.475,32.705 9.885,32.115 C9.295,31.525 9,30.82 9,30 L9,27 C9,26.179 9.295,25.474 9.885,24.884 C10.475,24.295 11.18,24 12,24 C12,24 11.18,24 12,24 L12,24 L12,24 Z M27,18 L42,18 L42,15 L27,15 L27,15 L27,18 L27,18 Z M33,30 L42,30 L42,27 L33,27 L33,27 L33,30 L33,30 Z M36,6 L42,6 L42,3 L36,3 L36,3 L36,6 L36,6 Z"></path>
</svg>