<svg width="32" height="27" viewBox="0 0 32 27" fill="none" xmlns="http://www.w3.org/2000/svg">
<path d="M9.91225 22.2487C9.91225 23.4374 8.95801 24.3916 7.76939 24.3916C6.58077 24.3916 5.62653 23.4374 5.62653 22.2487C5.62653 21.0601 6.58077 20.1059 7.76939 20.1059C8.95801 20.1059 9.91225 21.0601 9.91225 22.2487ZM3.48367 13.6773V13.1751C3.50042 13.0746 3.58412 12.8905 3.63434 12.8068L6.89885 9.54227C6.98256 9.47531 7.16671 9.40834 7.26716 9.3916H9.91225V13.6773H3.48367ZM24.9122 22.2487C24.9122 23.4374 23.958 24.3916 22.7694 24.3916C21.5808 24.3916 20.6265 23.4374 20.6265 22.2487C20.6265 21.0601 21.5808 20.1059 22.7694 20.1059C23.958 20.1059 24.9122 21.0601 24.9122 22.2487ZM27.0551 10.9987C27.0551 11.3001 26.8207 11.5345 26.5194 11.5345H22.7694V15.2845C22.7694 15.5858 22.535 15.8202 22.2337 15.8202H19.0194C18.7181 15.8202 18.4837 15.5858 18.4837 15.2845V11.5345H14.7337C14.4323 11.5345 14.198 11.3001 14.198 10.9987V7.78446C14.198 7.48312 14.4323 7.24874 14.7337 7.24874H18.4837V3.49874C18.4837 3.1974 18.7181 2.96303 19.0194 2.96303H22.2337C22.535 2.96303 22.7694 3.1974 22.7694 3.49874V7.24874H26.5194C26.8207 7.24874 27.0551 7.48312 27.0551 7.78446V10.9987ZM31.3408 1.8916C31.3408 1.30566 30.8553 0.820172 30.2694 0.820172H10.9837C10.3977 0.820172 9.91225 1.30566 9.91225 1.8916V7.24874H7.23367C6.64774 7.24874 5.82742 7.58357 5.4089 8.00209L2.09417 11.3168C1.67564 11.7354 1.34082 12.5557 1.34082 13.1416V20.1059C0.75488 20.1059 0.269389 20.5914 0.269389 21.1773C0.269389 21.7633 0.75488 22.2487 1.34082 22.2487H3.48367C3.48367 24.6092 5.39216 26.5345 7.76939 26.5345C10.1466 26.5345 12.0551 24.6092 12.0551 22.2487H18.4837C18.4837 24.6092 20.4089 26.5345 22.7694 26.5345C25.1466 26.5345 27.0551 24.6092 27.0551 22.2487H30.2694C30.8553 22.2487 31.3408 21.7633 31.3408 21.1773V1.8916Z" fill="#EBEBF2"/>
</svg>
