<?xml version="1.0" encoding="utf-8"?>
<!-- Generator: Adobe Illustrator 26.5.0, SVG Export Plug-In . SVG Version: 6.00 Build 0)  -->
<svg version="1.1" id="Layer_1" xmlns="http://www.w3.org/2000/svg" xmlns:xlink="http://www.w3.org/1999/xlink" x="0px" y="0px"
	 viewBox="0 0 500 144" style="enable-background:new 0 0 500 144;" xml:space="preserve">
<style type="text/css">
	.st0{fill:#0064A4;}
	.st1{fill:none;}
	.st2{fill:#252A2E;}
</style>
<g>
	<g>
		<polygon class="st0" points="62.2,63.8 62.2,93.4 71,98.5 79.8,93.4 79.8,63.8 		"/>
		<polygon class="st0" points="79.8,58.6 79.8,51.6 71,46.5 62.2,51.6 62.2,58.6 		"/>
	</g>
	<g>
		<polygon class="st0" points="75.9,101.4 93.6,111.5 116,98.5 116,46.5 71,20.5 26,46.5 26,98.5 71,124.5 106.1,124.5 43.5,88.4 
			43.5,56.6 71,40.7 98.5,56.6 98.5,88.4 		"/>
	</g>
</g>
<g>
	<path class="st2" d="M162.2,100l-16.7-62.9h10.7l8,32.6c1.3,5,2.5,9.7,3.3,14.6h0.2c0.8-4.8,2-9.5,3.2-14.5l7.6-32.6h10.2l7.8,32.8
		c1.4,5.4,2.4,9.1,3.3,14.4h0.2c0.9-5.4,1.9-8.8,3.1-14.1l7.8-33.1h9.9L204.2,100h-9.3l-11.3-48.2h-0.2L171.6,100H162.2z"/>
	<path class="st2" d="M220.2,77.5c0-16.7,11-23.5,22-23.5c11,0,22,6.8,22,23.5c0,16.5-11.1,23.5-22,23.5S220.2,94,220.2,77.5z
		 M253.7,77.5c0-8.4-3.6-14.5-11.5-14.5c-7.6,0-11.5,5.4-11.5,14.5c0,8.6,3.5,14.7,11.5,14.7C249.8,92.2,253.7,86.7,253.7,77.5z"/>
	<path class="st2" d="M271.3,100V54.9h10.5v7.4h0.2c2.8-4.5,7.7-8.2,16.2-8.2h0.7l-0.3,9.6c-0.5-0.1-2.2-0.2-2.8-0.2
		c-6.7,0-11,3.1-13.9,8V100H271.3z"/>
	<path class="st2" d="M304.2,100V37.1h10.5v37.5l17.1-19.7h11.5l-14.7,16.5l16,28.6h-11l-11.6-20.9l-7.2,7.9v13H304.2z"/>
	<path class="st2" d="M346.5,93.8l5.7-6.4c3.4,2.9,8.4,5.4,14.2,5.4c5.6,0,9-1.4,9-5.2c0-3.7-4.6-4.8-10-6c-7.7-1.8-17-3.8-17-14.3
		c0-7.9,6.8-13.3,16.7-13.3c8.6,0,13.9,2.5,18.5,6.4l-5,6.8c-3.3-2.7-8.7-4.9-12.8-4.9c-5.8,0-7.7,2-7.7,4.6c0,3.7,4.5,4.8,9.9,6
		c7.7,1.7,17.2,3.7,17.2,14.2c0,9.5-8.6,13.9-18.9,13.9C358,100.9,350.6,98,346.5,93.8z"/>
	<path class="st2" d="M394.8,100V32h11.6v68H394.8z"/>
	<path class="st2" d="M460.3,117.7c-14.3,0-21.2-7.3-21.5-17.3C425,98,414.5,85.7,414.5,66c0-22.9,14.3-35.3,30.8-35.3
		c16.3,0,30.6,12.4,30.6,35.3c0,20.3-11.1,32.6-25.4,34.7c1.4,6.6,6.1,7.3,14.5,7.3h4.7v9.7H460.3z M464.3,66c0-16-7.6-24.7-19-24.7
		c-11.6,0-19.2,8.7-19.2,24.7c0,16,7.6,25.1,19.2,25.1C456.7,91.1,464.3,82,464.3,66z"/>
</g>
</svg>
